<svg xmlns="http://www.w3.org/2000/svg" xmlns:xlink="http://www.w3.org/1999/xlink" width="500" zoomAndPan="magnify" viewBox="0 0 375 374.999991" height="500" preserveAspectRatio="xMidYMid meet" version="1.0"><defs><clipPath id="edabbec25c"><path d="M 36 32 L 341 32 L 341 343 L 36 343 Z M 36 32 " clip-rule="nonzero"/></clipPath><clipPath id="f49b0d237a"><path d="M 149.066406 32.777344 C 159.976562 31.714844 167.132812 36.347656 176.035156 41.648438 L 189.332031 49.609375 C 191.199219 50.734375 193.8125 52.726562 196.054688 52.800781 C 199.332031 52.910156 221.230469 38.414062 226.621094 35.992188 C 230.796875 34.113281 235.359375 32.683594 239.972656 32.617188 C 244.5 32.550781 249.074219 33.757812 253.199219 35.558594 C 258.390625 37.828125 263.320312 40.996094 268.238281 43.820312 L 294.84375 59.246094 L 316.433594 71.714844 C 328.355469 78.609375 340.132812 83.535156 340.269531 99.339844 C 340.414062 115.6875 327.988281 120.679688 315.855469 127.558594 L 298.59375 137.449219 C 290.117188 142.328125 281.761719 147.628906 273.097656 152.109375 C 267.9375 154.679688 258.261719 156.242188 252.683594 153.976562 C 239.144531 148.476562 225.859375 139.023438 212.925781 132.066406 C 205.960938 128.320312 198.585938 121.863281 190.277344 126.238281 C 175.808594 133.863281 162.074219 142.15625 147.921875 150.289062 C 144.324219 152.359375 141.097656 156.316406 140.429688 160.527344 C 139.589844 167.128906 140.054688 174.507812 140 181.199219 C 140.089844 190.882812 139.902344 200.59375 140.050781 210.273438 C 140.222656 221.238281 147.957031 224.652344 156.082031 229.320312 L 170.734375 237.695312 C 175.503906 240.425781 180.664062 243.402344 185.328125 246.28125 C 196.710938 253.304688 203.492188 248.378906 213.609375 242.429688 L 234.875 230.027344 C 245.960938 223.570312 255.308594 217.003906 268.6875 221.242188 C 275.101562 223.273438 279.605469 226.242188 285.363281 229.570312 L 303.851562 240.273438 L 317.976562 248.441406 C 329.144531 254.835938 339.902344 259.730469 340.175781 274.472656 C 340.539062 280.621094 338.457031 288.074219 333.65625 292.375 C 328.1875 297.277344 319.207031 301.722656 312.640625 305.460938 L 285.550781 321.0625 L 264.683594 333.207031 C 255.328125 338.632812 247.386719 344.214844 235.9375 342.300781 C 233.285156 341.863281 230.699219 341.078125 228.253906 339.960938 C 220.828125 336.605469 213.117188 331.1875 205.867188 327.292969 C 196.429688 322.226562 198.511719 320.363281 189.109375 325.851562 L 173.855469 334.621094 C 170.746094 336.402344 167.671875 338.316406 164.429688 339.832031 C 151.832031 345.730469 141.351562 341.492188 130.382812 334.539062 C 118.792969 327.199219 105.113281 320.980469 93.714844 313.296875 C 91.738281 311.980469 89.90625 310.460938 88.25 308.765625 C 80.230469 300.621094 79.898438 291.640625 79.925781 280.957031 L 79.980469 267.839844 C 82.46875 268.941406 93.554688 275.335938 95.773438 276.925781 C 96.136719 285.175781 93.980469 295.289062 102.644531 300.359375 C 115.050781 307.613281 127.550781 314.632812 139.960938 321.898438 C 146.378906 325.652344 151.554688 328.605469 158.953125 324.746094 C 163.726562 322.257812 168.300781 319.527344 172.957031 316.835938 L 203.128906 299.210938 L 253.726562 270.089844 C 260.941406 265.921875 268.898438 261.90625 275.515625 257.003906 C 279.496094 254.058594 279.460938 246.242188 275.773438 243.058594 C 274.210938 241.480469 272.152344 240.570312 270.351562 239.371094 C 260.203125 232.585938 255.105469 236.710938 246.140625 241.925781 L 223.042969 255.328125 C 217.730469 258.390625 212.234375 261.882812 206.503906 264.023438 C 190.730469 269.921875 177.945312 260.214844 165.03125 252.75 L 150.359375 244.238281 C 145.621094 241.5 136.9375 236.695312 133.300781 232.953125 C 122.355469 221.691406 124 208.34375 124.09375 193.890625 L 124.183594 173.667969 C 124.214844 168.785156 124.101562 162.070312 125.105469 157.414062 C 125.9375 153.609375 127.460938 149.984375 129.601562 146.726562 C 134.355469 139.507812 140.0625 136.738281 147.292969 132.570312 L 159.167969 125.730469 C 182.75 112.15625 195.007812 100.761719 220.34375 118.214844 C 221.730469 119.167969 223.945312 120.300781 225.507812 121.207031 L 244.503906 132.214844 C 249.816406 135.316406 257.152344 140.71875 263.617188 138.679688 C 270.785156 136.417969 280.855469 131 278.328125 121.863281 C 276.988281 117.003906 271.121094 114.496094 267.023438 112.191406 C 263.066406 109.980469 259.125 107.738281 255.199219 105.464844 L 207.796875 78.386719 C 209.777344 76.808594 220.71875 70.441406 223.238281 69.035156 C 225.523438 69.90625 230.902344 73.1875 233.332031 74.59375 L 251.945312 85.390625 L 276.234375 99.460938 C 282.851562 103.277344 290.855469 106.988281 295.746094 112.832031 C 297.261719 114.640625 297.53125 117.6875 299.335938 118.492188 C 303.871094 117.492188 314.527344 109.480469 319.328125 107.285156 C 320.957031 106.542969 323.730469 104.269531 324.207031 102.480469 C 325.363281 98.140625 324.046875 94.480469 320.0625 92.257812 C 315.652344 89.683594 311.300781 87.140625 306.90625 84.621094 L 286.589844 72.84375 L 268.359375 62.292969 C 260.492188 57.664062 251.433594 51.757812 243 48.566406 C 237.621094 46.527344 225.808594 54.542969 221 57.285156 L 190.542969 74.992188 L 139.800781 104.167969 C 129.652344 110.003906 118.800781 116.007812 108.878906 122.183594 C 108.753906 117.613281 108.617188 107.65625 109.207031 103.578125 C 112.703125 101.097656 124.121094 94.976562 128.433594 92.507812 L 164.195312 71.851562 C 167.28125 70.085938 177.984375 64.421875 179.695312 62.386719 C 178.972656 61.199219 174.195312 58.699219 172.535156 57.898438 C 167.625 55.574219 157.371094 47.875 152.085938 48.390625 C 145.15625 49.066406 132.953125 57.183594 126.605469 60.796875 L 111.203125 69.679688 C 105.140625 73.1875 96.296875 76.851562 95.984375 84.914062 C 95.6875 92.535156 95.753906 100.238281 95.757812 107.867188 L 95.800781 152.449219 L 95.785156 214.007812 C 95.800781 223.503906 95.488281 236.230469 95.992188 245.507812 C 98.902344 247.46875 102.417969 249.308594 105.503906 251.078125 L 121.011719 259.984375 L 163.175781 284.265625 C 170.339844 288.394531 177.921875 292.566406 184.9375 296.851562 C 182.988281 298.226562 170.898438 305.035156 168.992188 305.347656 C 165.976562 304.621094 154.722656 297.765625 151.410156 295.847656 L 117.976562 276.449219 C 100.164062 266.351562 82.449219 256.09375 64.828125 245.671875 C 59.667969 242.589844 53.933594 239.773438 48.984375 236.464844 C 41.710938 231.609375 36.585938 223.082031 36.179688 214.304688 C 36.027344 211.015625 36.082031 207.773438 36.09375 204.519531 L 36.15625 186.121094 L 36.105469 169.421875 C 36.074219 160.886719 35.730469 154.796875 40.476562 147.242188 C 45.027344 140 51.582031 136.769531 58.679688 132.695312 L 72.25 124.878906 C 74.785156 123.449219 77.648438 122.023438 79.96875 120.285156 L 79.945312 97.84375 C 79.949219 92.828125 79.695312 85.683594 80.652344 80.984375 C 81.5 76.75 83.242188 72.742188 85.757812 69.226562 C 87.511719 66.8125 89.625 64.675781 92.023438 62.898438 C 94.828125 60.832031 98.859375 58.632812 101.933594 56.867188 L 118.042969 47.625 C 128.03125 41.855469 137.550781 34.628906 149.066406 32.777344 Z M 238.6875 326.511719 C 246.457031 326.761719 254.921875 320.429688 261.648438 316.511719 L 288.09375 301.257812 L 310.65625 288.199219 C 311.691406 287.601562 318.234375 283.664062 318.605469 283.582031 C 324.054688 282.316406 326.6875 272.777344 322.621094 270.050781 C 318.355469 267.191406 303.652344 257.507812 299.09375 256.15625 L 298.949219 256.398438 C 296.890625 259.84375 296.585938 262.234375 293.046875 265.003906 C 287.28125 269.519531 280.699219 272.878906 274.375 276.558594 C 258.417969 285.710938 242.519531 294.964844 226.679688 304.316406 C 222.957031 306.535156 215.144531 310.476562 212.097656 312.792969 C 217.324219 315.988281 233.351562 325.476562 238.6875 326.511719 Z M 62.882812 226.410156 C 66.039062 228.265625 76.625 234.878906 79.53125 235.484375 L 79.90625 235.265625 C 80.40625 232.917969 80.015625 221.828125 80.007812 218.515625 L 80.039062 177.398438 L 80.085938 154.152344 C 80.117188 150.9375 80.359375 142.347656 79.917969 139.660156 L 79.558594 139.203125 C 75.273438 140.847656 70.441406 144.152344 66.359375 146.355469 C 60.734375 149.386719 51.800781 153.8125 51.691406 161.292969 C 51.449219 177.894531 51.578125 194.570312 51.640625 211.175781 C 51.691406 219.8125 56.035156 222.644531 62.882812 226.410156 Z M 62.882812 226.410156 " clip-rule="nonzero"/></clipPath><linearGradient x1="473.965711" gradientTransform="matrix(0.382437, 0, 0, 0.382437, -87.890679, -133.103877)" y1="341.715496" x2="1040.909998" gradientUnits="userSpaceOnUse" y2="1299.052007" id="c307d73f65"><stop stop-opacity="1" stop-color="rgb(99.21875%, 58.428955%, 11.369324%)" offset="0"/><stop stop-opacity="1" stop-color="rgb(99.21875%, 58.428955%, 11.369324%)" offset="0.125"/><stop stop-opacity="1" stop-color="rgb(99.223328%, 58.277893%, 11.412048%)" offset="0.140625"/><stop stop-opacity="1" stop-color="rgb(99.232483%, 58.004761%, 11.488342%)" offset="0.148438"/><stop stop-opacity="1" stop-color="rgb(99.240112%, 57.76062%, 11.558533%)" offset="0.15625"/><stop stop-opacity="1" stop-color="rgb(99.249268%, 57.516479%, 11.627197%)" offset="0.164062"/><stop stop-opacity="1" stop-color="rgb(99.256897%, 57.272339%, 11.695862%)" offset="0.171875"/><stop stop-opacity="1" stop-color="rgb(99.264526%, 57.028198%, 11.766052%)" offset="0.179688"/><stop stop-opacity="1" stop-color="rgb(99.273682%, 56.784058%, 11.834717%)" offset="0.1875"/><stop stop-opacity="1" stop-color="rgb(99.281311%, 56.539917%, 11.904907%)" offset="0.195312"/><stop stop-opacity="1" stop-color="rgb(99.28894%, 56.295776%, 11.973572%)" offset="0.203125"/><stop stop-opacity="1" stop-color="rgb(99.298096%, 56.051636%, 12.042236%)" offset="0.210938"/><stop stop-opacity="1" stop-color="rgb(99.305725%, 55.807495%, 12.112427%)" offset="0.21875"/><stop stop-opacity="1" stop-color="rgb(99.313354%, 55.563354%, 12.181091%)" offset="0.226562"/><stop stop-opacity="1" stop-color="rgb(99.32251%, 55.319214%, 12.249756%)" offset="0.234375"/><stop stop-opacity="1" stop-color="rgb(99.330139%, 55.075073%, 12.319946%)" offset="0.242188"/><stop stop-opacity="1" stop-color="rgb(99.337769%, 54.830933%, 12.388611%)" offset="0.25"/><stop stop-opacity="1" stop-color="rgb(99.345398%, 54.586792%, 12.457275%)" offset="0.257813"/><stop stop-opacity="1" stop-color="rgb(99.354553%, 54.342651%, 12.527466%)" offset="0.265625"/><stop stop-opacity="1" stop-color="rgb(99.362183%, 54.098511%, 12.59613%)" offset="0.273438"/><stop stop-opacity="1" stop-color="rgb(99.369812%, 53.85437%, 12.664795%)" offset="0.28125"/><stop stop-opacity="1" stop-color="rgb(99.378967%, 53.610229%, 12.734985%)" offset="0.289062"/><stop stop-opacity="1" stop-color="rgb(99.386597%, 53.366089%, 12.80365%)" offset="0.296875"/><stop stop-opacity="1" stop-color="rgb(99.394226%, 53.121948%, 12.87384%)" offset="0.304688"/><stop stop-opacity="1" stop-color="rgb(99.403381%, 52.877808%, 12.942505%)" offset="0.3125"/><stop stop-opacity="1" stop-color="rgb(99.411011%, 52.633667%, 13.011169%)" offset="0.320312"/><stop stop-opacity="1" stop-color="rgb(99.41864%, 52.389526%, 13.08136%)" offset="0.328125"/><stop stop-opacity="1" stop-color="rgb(99.42627%, 52.145386%, 13.150024%)" offset="0.335938"/><stop stop-opacity="1" stop-color="rgb(99.435425%, 51.901245%, 13.218689%)" offset="0.34375"/><stop stop-opacity="1" stop-color="rgb(99.443054%, 51.657104%, 13.288879%)" offset="0.351562"/><stop stop-opacity="1" stop-color="rgb(99.450684%, 51.412964%, 13.357544%)" offset="0.359375"/><stop stop-opacity="1" stop-color="rgb(99.459839%, 51.168823%, 13.426208%)" offset="0.365017"/><stop stop-opacity="1" stop-color="rgb(99.464417%, 51.046753%, 13.461304%)" offset="0.367187"/><stop stop-opacity="1" stop-color="rgb(99.467468%, 50.924683%, 13.496399%)" offset="0.375"/><stop stop-opacity="1" stop-color="rgb(99.475098%, 50.680542%, 13.565063%)" offset="0.382812"/><stop stop-opacity="1" stop-color="rgb(99.484253%, 50.436401%, 13.633728%)" offset="0.390625"/><stop stop-opacity="1" stop-color="rgb(99.491882%, 50.192261%, 13.703918%)" offset="0.398438"/><stop stop-opacity="1" stop-color="rgb(99.499512%, 49.94812%, 13.772583%)" offset="0.40625"/><stop stop-opacity="1" stop-color="rgb(99.508667%, 49.703979%, 13.842773%)" offset="0.414062"/><stop stop-opacity="1" stop-color="rgb(99.516296%, 49.459839%, 13.911438%)" offset="0.421875"/><stop stop-opacity="1" stop-color="rgb(99.523926%, 49.215698%, 13.980103%)" offset="0.429688"/><stop stop-opacity="1" stop-color="rgb(99.531555%, 48.971558%, 14.050293%)" offset="0.4375"/><stop stop-opacity="1" stop-color="rgb(99.54071%, 48.727417%, 14.118958%)" offset="0.445312"/><stop stop-opacity="1" stop-color="rgb(99.54834%, 48.483276%, 14.187622%)" offset="0.453125"/><stop stop-opacity="1" stop-color="rgb(99.555969%, 48.239136%, 14.257812%)" offset="0.460938"/><stop stop-opacity="1" stop-color="rgb(99.565125%, 47.994995%, 14.326477%)" offset="0.46875"/><stop stop-opacity="1" stop-color="rgb(99.572754%, 47.750854%, 14.395142%)" offset="0.476562"/><stop stop-opacity="1" stop-color="rgb(99.580383%, 47.506714%, 14.465332%)" offset="0.484375"/><stop stop-opacity="1" stop-color="rgb(99.589539%, 47.262573%, 14.533997%)" offset="0.492188"/><stop stop-opacity="1" stop-color="rgb(99.597168%, 47.018433%, 14.602661%)" offset="0.5"/><stop stop-opacity="1" stop-color="rgb(99.604797%, 46.774292%, 14.672852%)" offset="0.507812"/><stop stop-opacity="1" stop-color="rgb(99.612427%, 46.530151%, 14.741516%)" offset="0.515625"/><stop stop-opacity="1" stop-color="rgb(99.621582%, 46.286011%, 14.810181%)" offset="0.523438"/><stop stop-opacity="1" stop-color="rgb(99.629211%, 46.04187%, 14.880371%)" offset="0.53125"/><stop stop-opacity="1" stop-color="rgb(99.636841%, 45.797729%, 14.949036%)" offset="0.539062"/><stop stop-opacity="1" stop-color="rgb(99.645996%, 45.553589%, 15.019226%)" offset="0.546875"/><stop stop-opacity="1" stop-color="rgb(99.653625%, 45.309448%, 15.087891%)" offset="0.554688"/><stop stop-opacity="1" stop-color="rgb(99.661255%, 45.065308%, 15.156555%)" offset="0.5625"/><stop stop-opacity="1" stop-color="rgb(99.67041%, 44.821167%, 15.226746%)" offset="0.570312"/><stop stop-opacity="1" stop-color="rgb(99.67804%, 44.577026%, 15.29541%)" offset="0.578125"/><stop stop-opacity="1" stop-color="rgb(99.685669%, 44.332886%, 15.364075%)" offset="0.585938"/><stop stop-opacity="1" stop-color="rgb(99.694824%, 44.088745%, 15.434265%)" offset="0.59375"/><stop stop-opacity="1" stop-color="rgb(99.702454%, 43.844604%, 15.50293%)" offset="0.601562"/><stop stop-opacity="1" stop-color="rgb(99.710083%, 43.600464%, 15.571594%)" offset="0.609375"/><stop stop-opacity="1" stop-color="rgb(99.717712%, 43.356323%, 15.641785%)" offset="0.617187"/><stop stop-opacity="1" stop-color="rgb(99.726868%, 43.112183%, 15.710449%)" offset="0.625"/><stop stop-opacity="1" stop-color="rgb(99.734497%, 42.868042%, 15.779114%)" offset="0.632812"/><stop stop-opacity="1" stop-color="rgb(99.742126%, 42.623901%, 15.849304%)" offset="0.634983"/><stop stop-opacity="1" stop-color="rgb(99.746704%, 42.501831%, 15.884399%)" offset="0.640625"/><stop stop-opacity="1" stop-color="rgb(99.751282%, 42.379761%, 15.917969%)" offset="0.648438"/><stop stop-opacity="1" stop-color="rgb(99.758911%, 42.13562%, 15.988159%)" offset="0.65625"/><stop stop-opacity="1" stop-color="rgb(99.766541%, 41.891479%, 16.056824%)" offset="0.664062"/><stop stop-opacity="1" stop-color="rgb(99.775696%, 41.647339%, 16.125488%)" offset="0.671875"/><stop stop-opacity="1" stop-color="rgb(99.783325%, 41.403198%, 16.195679%)" offset="0.679688"/><stop stop-opacity="1" stop-color="rgb(99.790955%, 41.159058%, 16.264343%)" offset="0.6875"/><stop stop-opacity="1" stop-color="rgb(99.798584%, 40.914917%, 16.333008%)" offset="0.695312"/><stop stop-opacity="1" stop-color="rgb(99.807739%, 40.670776%, 16.403198%)" offset="0.703125"/><stop stop-opacity="1" stop-color="rgb(99.815369%, 40.426636%, 16.471863%)" offset="0.710937"/><stop stop-opacity="1" stop-color="rgb(99.822998%, 40.182495%, 16.540527%)" offset="0.71875"/><stop stop-opacity="1" stop-color="rgb(99.832153%, 39.938354%, 16.610718%)" offset="0.726562"/><stop stop-opacity="1" stop-color="rgb(99.839783%, 39.694214%, 16.679382%)" offset="0.734375"/><stop stop-opacity="1" stop-color="rgb(99.847412%, 39.450073%, 16.748047%)" offset="0.742188"/><stop stop-opacity="1" stop-color="rgb(99.856567%, 39.205933%, 16.818237%)" offset="0.75"/><stop stop-opacity="1" stop-color="rgb(99.864197%, 38.961792%, 16.886902%)" offset="0.757812"/><stop stop-opacity="1" stop-color="rgb(99.871826%, 38.717651%, 16.957092%)" offset="0.765625"/><stop stop-opacity="1" stop-color="rgb(99.880981%, 38.473511%, 17.025757%)" offset="0.773438"/><stop stop-opacity="1" stop-color="rgb(99.888611%, 38.22937%, 17.094421%)" offset="0.78125"/><stop stop-opacity="1" stop-color="rgb(99.89624%, 37.985229%, 17.164612%)" offset="0.789062"/><stop stop-opacity="1" stop-color="rgb(99.90387%, 37.741089%, 17.233276%)" offset="0.796875"/><stop stop-opacity="1" stop-color="rgb(99.913025%, 37.496948%, 17.301941%)" offset="0.804688"/><stop stop-opacity="1" stop-color="rgb(99.920654%, 37.252808%, 17.372131%)" offset="0.8125"/><stop stop-opacity="1" stop-color="rgb(99.928284%, 37.008667%, 17.440796%)" offset="0.820312"/><stop stop-opacity="1" stop-color="rgb(99.937439%, 36.764526%, 17.50946%)" offset="0.828125"/><stop stop-opacity="1" stop-color="rgb(99.945068%, 36.520386%, 17.579651%)" offset="0.835937"/><stop stop-opacity="1" stop-color="rgb(99.952698%, 36.276245%, 17.648315%)" offset="0.84375"/><stop stop-opacity="1" stop-color="rgb(99.961853%, 36.032104%, 17.71698%)" offset="0.851562"/><stop stop-opacity="1" stop-color="rgb(99.969482%, 35.787964%, 17.78717%)" offset="0.859375"/><stop stop-opacity="1" stop-color="rgb(99.977112%, 35.543823%, 17.855835%)" offset="0.867188"/><stop stop-opacity="1" stop-color="rgb(99.984741%, 35.299683%, 17.926025%)" offset="0.875"/><stop stop-opacity="1" stop-color="rgb(99.993896%, 35.038757%, 17.999268%)" offset="1"/></linearGradient></defs><g clip-path="url(#edabbec25c)"><g clip-path="url(#f49b0d237a)"><path fill="url(#c307d73f65)" d="M 35.730469 31.714844 L 35.730469 345.730469 L 340.539062 345.730469 L 340.539062 31.714844 Z M 35.730469 31.714844 " fill-rule="nonzero"/></g></g></svg>