<svg xmlns="http://www.w3.org/2000/svg" xmlns:xlink="http://www.w3.org/1999/xlink" width="500" zoomAndPan="magnify" viewBox="0 0 375 374.999991" height="500" preserveAspectRatio="xMidYMid meet" version="1.0"><defs><clipPath id="33018c3aed"><path d="M 36 32 L 341 32 L 341 343 L 36 343 Z M 36 32 " clip-rule="nonzero"/></clipPath><clipPath id="226ef03a7a"><path d="M 148.960938 32.683594 C 159.871094 31.621094 167.023438 36.25 175.925781 41.546875 L 189.214844 49.507812 C 191.085938 50.632812 193.695312 52.625 195.9375 52.699219 C 199.210938 52.808594 221.101562 38.320312 226.492188 35.894531 C 230.667969 34.015625 235.230469 32.585938 239.84375 32.519531 C 244.367188 32.457031 248.941406 33.660156 253.0625 35.460938 C 258.253906 37.730469 263.179688 40.898438 268.097656 43.722656 L 294.699219 59.144531 L 316.28125 71.609375 C 328.199219 78.5 339.972656 83.421875 340.109375 99.222656 C 340.253906 115.570312 327.832031 120.558594 315.703125 127.433594 L 298.445312 137.324219 C 289.972656 142.199219 281.617188 147.5 272.957031 151.980469 C 267.800781 154.550781 258.125 156.113281 252.550781 153.847656 C 239.015625 148.347656 225.734375 138.898438 212.804688 131.941406 C 205.839844 128.195312 198.464844 121.742188 190.160156 126.117188 C 175.695312 133.738281 161.964844 142.027344 147.816406 150.15625 C 144.21875 152.226562 140.996094 156.1875 140.328125 160.390625 C 139.488281 166.996094 139.953125 174.371094 139.898438 181.0625 C 139.988281 190.742188 139.800781 200.449219 139.949219 210.125 C 140.121094 221.085938 147.851562 224.5 155.976562 229.167969 L 170.625 237.539062 C 175.390625 240.269531 180.550781 243.246094 185.214844 246.121094 C 196.59375 253.144531 203.371094 248.222656 213.484375 242.273438 L 234.746094 229.871094 C 245.828125 223.417969 255.175781 216.851562 268.550781 221.089844 C 274.960938 223.121094 279.464844 226.089844 285.21875 229.417969 L 303.703125 240.117188 L 317.820312 248.28125 C 328.988281 254.675781 339.742188 259.570312 340.015625 274.304688 C 340.378906 280.453125 338.296875 287.902344 333.496094 292.203125 C 328.03125 297.101562 319.050781 301.550781 312.488281 305.285156 L 285.40625 320.882812 L 264.546875 333.023438 C 255.191406 338.445312 247.253906 344.027344 235.808594 342.113281 C 233.15625 341.679688 230.574219 340.890625 228.128906 339.773438 C 220.703125 336.421875 212.992188 331.003906 205.746094 327.109375 C 196.3125 322.046875 198.390625 320.183594 188.992188 325.667969 L 173.746094 334.4375 C 170.636719 336.21875 167.5625 338.128906 164.324219 339.648438 C 151.730469 345.542969 141.25 341.308594 130.285156 334.355469 C 118.699219 327.015625 105.023438 320.800781 93.628906 313.117188 C 91.652344 311.804688 89.820312 310.285156 88.164062 308.585938 C 80.148438 300.449219 79.816406 291.46875 79.84375 280.789062 L 79.898438 267.675781 C 82.382812 268.777344 93.464844 275.167969 95.6875 276.757812 C 96.046875 285.003906 93.894531 295.113281 102.554688 300.183594 C 114.957031 307.4375 127.453125 314.457031 139.859375 321.714844 C 146.277344 325.472656 151.449219 328.421875 158.847656 324.566406 C 163.617188 322.074219 168.191406 319.347656 172.84375 316.660156 L 203.007812 299.039062 L 253.59375 269.921875 C 260.804688 265.757812 268.757812 261.746094 275.375 256.84375 C 279.355469 253.898438 279.320312 246.082031 275.632812 242.902344 C 274.070312 241.324219 272.011719 240.414062 270.210938 239.214844 C 260.066406 232.433594 254.972656 236.554688 246.007812 241.765625 L 222.917969 255.164062 C 217.605469 258.226562 212.113281 261.71875 206.382812 263.859375 C 190.613281 269.753906 177.832031 260.050781 164.925781 252.589844 L 150.253906 244.082031 C 145.519531 241.34375 136.835938 236.539062 133.199219 232.796875 C 122.257812 221.542969 123.902344 208.195312 123.996094 193.75 L 124.089844 173.53125 C 124.121094 168.648438 124.003906 161.9375 125.007812 157.285156 C 125.839844 153.476562 127.363281 149.855469 129.503906 146.597656 C 134.253906 139.382812 139.960938 136.613281 147.191406 132.445312 L 159.0625 125.609375 C 182.632812 112.035156 194.890625 100.648438 220.21875 118.09375 C 221.605469 119.046875 223.816406 120.179688 225.378906 121.085938 L 244.371094 132.089844 C 249.683594 135.191406 257.015625 140.589844 263.476562 138.550781 C 270.644531 136.289062 280.714844 130.875 278.1875 121.742188 C 276.84375 116.882812 270.980469 114.375 266.882812 112.070312 C 262.925781 109.859375 258.988281 107.621094 255.066406 105.347656 L 207.675781 78.277344 C 209.65625 76.699219 220.59375 70.335938 223.113281 68.929688 C 225.398438 69.796875 230.773438 73.082031 233.203125 74.484375 L 251.8125 85.277344 L 276.089844 99.347656 C 282.707031 103.160156 290.707031 106.871094 295.601562 112.710938 C 297.113281 114.519531 297.382812 117.570312 299.1875 118.371094 C 303.722656 117.371094 314.375 109.363281 319.175781 107.167969 C 320.804688 106.425781 323.574219 104.15625 324.054688 102.363281 C 325.207031 98.023438 323.894531 94.367188 319.910156 92.144531 C 315.5 89.570312 311.148438 87.03125 306.757812 84.507812 L 286.445312 72.738281 L 268.21875 62.1875 C 260.355469 57.5625 251.296875 51.65625 242.871094 48.464844 C 237.492188 46.429688 225.679688 54.441406 220.875 57.183594 L 190.425781 74.886719 L 139.699219 104.050781 C 129.554688 109.886719 118.707031 115.886719 108.785156 122.058594 C 108.664062 117.496094 108.523438 107.539062 109.113281 103.464844 C 112.613281 100.984375 124.023438 94.863281 128.335938 92.398438 L 164.085938 71.746094 C 167.171875 69.980469 177.871094 64.320312 179.582031 62.28125 C 178.859375 61.09375 174.082031 58.597656 172.421875 57.792969 C 167.515625 55.472656 157.261719 47.773438 151.980469 48.289062 C 145.054688 48.964844 132.855469 57.082031 126.507812 60.695312 L 111.109375 69.570312 C 105.050781 73.078125 96.210938 76.742188 95.894531 84.804688 C 95.597656 92.421875 95.664062 100.121094 95.667969 107.75 L 95.714844 152.320312 L 95.699219 213.859375 C 95.710938 223.351562 95.398438 236.074219 95.902344 245.347656 C 98.8125 247.3125 102.328125 249.152344 105.414062 250.917969 L 120.914062 259.820312 L 163.070312 284.097656 C 170.230469 288.226562 177.808594 292.394531 184.824219 296.679688 C 182.875 298.054688 170.789062 304.859375 168.882812 305.171875 C 165.867188 304.445312 154.617188 297.59375 151.304688 295.675781 L 117.882812 276.28125 C 100.074219 266.1875 82.363281 255.933594 64.746094 245.511719 C 59.589844 242.433594 53.859375 239.617188 48.90625 236.308594 C 41.640625 231.453125 36.511719 222.929688 36.109375 214.15625 C 35.957031 210.871094 36.011719 207.628906 36.023438 204.371094 L 36.085938 185.980469 L 36.035156 169.285156 C 36.003906 160.753906 35.660156 154.664062 40.40625 147.113281 C 44.953125 139.875 51.507812 136.644531 58.601562 132.570312 L 72.167969 124.753906 C 74.703125 123.328125 77.566406 121.898438 79.886719 120.164062 L 79.863281 97.730469 C 79.863281 92.714844 79.609375 85.574219 80.566406 80.875 C 81.417969 76.640625 83.15625 72.632812 85.671875 69.121094 C 87.425781 66.707031 89.539062 64.570312 91.933594 62.792969 C 94.742188 60.730469 98.769531 58.53125 101.839844 56.761719 L 117.949219 47.527344 C 127.933594 41.757812 137.449219 34.53125 148.960938 32.683594 Z M 238.558594 326.332031 C 246.324219 326.578125 254.785156 320.25 261.511719 316.332031 L 287.949219 301.082031 L 310.503906 288.03125 C 311.539062 287.429688 318.082031 283.496094 318.453125 283.410156 C 323.898438 282.144531 326.53125 272.609375 322.464844 269.886719 C 318.203125 267.023438 303.503906 257.34375 298.945312 255.996094 L 298.800781 256.234375 C 296.742188 259.679688 296.4375 262.070312 292.902344 264.839844 C 287.136719 269.351562 280.558594 272.714844 274.234375 276.390625 C 258.28125 285.542969 242.386719 294.792969 226.550781 304.140625 C 222.832031 306.359375 215.019531 310.300781 211.972656 312.613281 C 217.199219 315.808594 233.222656 325.296875 238.558594 326.332031 Z M 62.804688 226.257812 C 65.957031 228.113281 76.542969 234.722656 79.449219 235.328125 L 79.824219 235.113281 C 80.320312 232.765625 79.933594 221.679688 79.925781 218.367188 L 79.953125 177.257812 L 80 154.023438 C 80.03125 150.804688 80.273438 142.222656 79.835938 139.535156 L 79.472656 139.078125 C 75.191406 140.71875 70.363281 144.023438 66.277344 146.226562 C 60.65625 149.257812 51.726562 153.679688 51.617188 161.160156 C 51.375 177.757812 51.503906 194.425781 51.566406 211.027344 C 51.617188 219.664062 55.957031 222.492188 62.804688 226.257812 Z M 62.804688 226.257812 " clip-rule="nonzero"/></clipPath></defs><g clip-path="url(#33018c3aed)"><g clip-path="url(#226ef03a7a)"><path fill="#ffffff" d="M 35.660156 31.621094 L 35.660156 345.542969 L 340.378906 345.542969 L 340.378906 31.621094 Z M 35.660156 31.621094 " fill-opacity="1" fill-rule="nonzero"/></g></g></svg>