<svg xmlns="http://www.w3.org/2000/svg" xmlns:xlink="http://www.w3.org/1999/xlink" width="500" zoomAndPan="magnify" viewBox="0 0 375 374.999991" height="500" preserveAspectRatio="xMidYMid meet" version="1.0"><defs><g/><clipPath id="9a93105f8c"><path d="M 83 41 L 293 41 L 293 255 L 83 255 Z M 83 41 " clip-rule="nonzero"/></clipPath><clipPath id="fe924a05d1"><path d="M 160.894531 41.835938 C 168.382812 41.105469 173.296875 44.285156 179.40625 47.921875 L 188.53125 53.386719 C 189.8125 54.160156 191.605469 55.523438 193.144531 55.578125 C 195.394531 55.652344 210.421875 45.703125 214.125 44.039062 C 216.988281 42.75 220.121094 41.769531 223.289062 41.722656 C 226.394531 41.679688 229.535156 42.507812 232.363281 43.742188 C 235.929688 45.300781 239.308594 47.476562 242.6875 49.414062 L 260.949219 60.003906 L 275.765625 68.558594 C 283.945312 73.289062 292.03125 76.671875 292.125 87.519531 C 292.222656 98.738281 283.695312 102.164062 275.367188 106.882812 L 263.519531 113.671875 C 257.703125 117.019531 251.96875 120.660156 246.023438 123.734375 C 242.480469 125.5 235.839844 126.574219 232.011719 125.015625 C 222.71875 121.242188 213.601562 114.753906 204.722656 109.980469 C 199.945312 107.410156 194.882812 102.976562 189.179688 105.980469 C 179.25 111.210938 169.824219 116.902344 160.109375 122.484375 C 157.640625 123.90625 155.429688 126.625 154.96875 129.511719 C 154.390625 134.042969 154.710938 139.109375 154.675781 143.699219 C 154.734375 150.347656 154.605469 157.011719 154.710938 163.652344 C 154.828125 171.179688 160.132812 173.523438 165.710938 176.726562 L 175.769531 182.476562 C 179.039062 184.347656 182.582031 186.390625 185.78125 188.367188 C 193.597656 193.1875 198.25 189.808594 205.191406 185.722656 L 219.789062 177.210938 C 227.398438 172.78125 233.8125 168.273438 242.996094 171.183594 C 247.398438 172.578125 250.488281 174.613281 254.4375 176.898438 L 267.128906 184.242188 L 276.820312 189.851562 C 284.488281 194.238281 291.871094 197.597656 292.058594 207.714844 C 292.308594 211.933594 290.878906 217.050781 287.582031 220.003906 C 283.832031 223.367188 277.667969 226.417969 273.160156 228.984375 L 254.566406 239.691406 L 240.246094 248.027344 C 233.824219 251.75 228.375 255.582031 220.519531 254.265625 C 218.695312 253.96875 216.925781 253.425781 215.246094 252.660156 C 210.148438 250.359375 204.855469 246.640625 199.878906 243.96875 C 193.402344 240.488281 194.832031 239.210938 188.378906 242.976562 L 177.910156 248.996094 C 175.773438 250.21875 173.664062 251.53125 171.441406 252.574219 C 162.796875 256.621094 155.601562 253.714844 148.074219 248.941406 C 140.117188 243.902344 130.730469 239.632812 122.90625 234.359375 C 121.550781 233.457031 120.292969 232.417969 119.15625 231.25 C 113.652344 225.664062 113.425781 219.496094 113.445312 212.167969 L 113.480469 203.164062 C 115.1875 203.917969 122.796875 208.308594 124.320312 209.398438 C 124.570312 215.0625 123.089844 222 129.035156 225.480469 C 137.550781 230.460938 146.128906 235.28125 154.648438 240.265625 C 159.050781 242.84375 162.605469 244.867188 167.683594 242.21875 C 170.957031 240.511719 174.097656 238.636719 177.292969 236.792969 L 198 224.695312 L 232.726562 204.707031 C 237.679688 201.847656 243.140625 199.09375 247.683594 195.726562 C 250.414062 193.707031 250.390625 188.339844 247.859375 186.15625 C 246.785156 185.074219 245.371094 184.449219 244.136719 183.625 C 237.171875 178.96875 233.675781 181.796875 227.519531 185.378906 L 211.667969 194.574219 C 208.023438 196.675781 204.25 199.074219 200.316406 200.542969 C 189.492188 204.589844 180.714844 197.929688 171.855469 192.804688 L 161.785156 186.964844 C 158.53125 185.085938 152.570312 181.789062 150.074219 179.21875 C 142.5625 171.492188 143.691406 162.332031 143.757812 152.410156 L 143.820312 138.53125 C 143.839844 135.179688 143.761719 130.570312 144.449219 127.375 C 145.023438 124.761719 146.070312 122.277344 147.539062 120.039062 C 150.800781 115.085938 154.714844 113.183594 159.679688 110.324219 L 167.828125 105.632812 C 184.011719 96.3125 192.425781 88.496094 209.816406 100.472656 C 210.765625 101.125 212.285156 101.902344 213.359375 102.527344 L 226.398438 110.082031 C 230.042969 112.207031 235.078125 115.917969 239.515625 114.515625 C 244.433594 112.964844 251.347656 109.246094 249.613281 102.976562 C 248.691406 99.640625 244.664062 97.921875 241.851562 96.335938 C 239.136719 94.820312 236.429688 93.28125 233.738281 91.722656 L 201.203125 73.136719 C 202.5625 72.054688 210.074219 67.683594 211.804688 66.71875 C 213.371094 67.316406 217.0625 69.570312 218.730469 70.535156 L 231.503906 77.945312 L 248.171875 87.601562 C 252.714844 90.21875 258.207031 92.769531 261.566406 96.777344 C 262.605469 98.019531 262.789062 100.113281 264.027344 100.664062 C 267.140625 99.976562 274.457031 94.476562 277.75 92.972656 C 278.871094 92.460938 280.773438 90.902344 281.101562 89.671875 C 281.894531 86.695312 280.992188 84.183594 278.253906 82.65625 C 275.230469 80.890625 272.242188 79.144531 269.226562 77.414062 L 255.28125 69.335938 L 242.769531 62.09375 C 237.367188 58.914062 231.152344 54.863281 225.367188 52.671875 C 221.671875 51.273438 213.566406 56.773438 210.265625 58.65625 L 189.363281 70.808594 L 154.539062 90.832031 C 147.570312 94.835938 140.125 98.957031 133.3125 103.195312 C 133.230469 100.0625 133.132812 93.226562 133.539062 90.425781 C 135.941406 88.726562 143.777344 84.523438 146.734375 82.832031 L 171.277344 68.652344 C 173.398438 67.441406 180.742188 63.554688 181.917969 62.15625 C 181.421875 61.339844 178.140625 59.625 177.003906 59.074219 C 173.632812 57.480469 166.59375 52.195312 162.96875 52.550781 C 158.214844 53.011719 149.839844 58.585938 145.480469 61.066406 L 134.910156 67.160156 C 130.75 69.566406 124.679688 72.082031 124.464844 77.617188 C 124.261719 82.847656 124.304688 88.132812 124.308594 93.371094 L 124.339844 123.96875 L 124.328125 166.21875 C 124.339844 172.734375 124.125 181.46875 124.46875 187.835938 C 126.464844 189.183594 128.878906 190.445312 130.996094 191.660156 L 141.640625 197.773438 L 170.582031 214.4375 C 175.496094 217.269531 180.699219 220.136719 185.515625 223.074219 C 184.175781 224.019531 175.878906 228.691406 174.570312 228.90625 C 172.5 228.410156 164.78125 223.703125 162.503906 222.386719 L 139.558594 209.070312 C 127.335938 202.140625 115.175781 195.101562 103.082031 187.949219 C 99.539062 185.832031 95.605469 183.902344 92.207031 181.628906 C 87.214844 178.296875 83.695312 172.445312 83.417969 166.421875 C 83.316406 164.164062 83.351562 161.9375 83.359375 159.703125 L 83.402344 147.078125 L 83.367188 135.617188 C 83.347656 129.761719 83.113281 125.578125 86.371094 120.394531 C 89.492188 115.425781 93.988281 113.207031 98.859375 110.410156 L 108.175781 105.046875 C 109.914062 104.066406 111.882812 103.085938 113.472656 101.894531 L 113.457031 86.492188 C 113.457031 83.050781 113.285156 78.144531 113.941406 74.921875 C 114.523438 72.011719 115.71875 69.261719 117.445312 66.851562 C 118.648438 65.191406 120.101562 63.726562 121.746094 62.507812 C 123.671875 61.089844 126.4375 59.582031 128.546875 58.367188 L 139.605469 52.027344 C 146.457031 48.066406 152.992188 43.105469 160.894531 41.835938 Z M 222.40625 243.433594 C 227.738281 243.601562 233.546875 239.257812 238.164062 236.570312 L 256.3125 226.097656 L 271.796875 217.136719 C 272.507812 216.726562 277 214.023438 277.253906 213.96875 C 280.996094 213.097656 282.800781 206.550781 280.011719 204.679688 C 277.085938 202.71875 266.992188 196.070312 263.863281 195.144531 L 263.765625 195.308594 C 262.351562 197.675781 262.140625 199.316406 259.714844 201.214844 C 255.753906 204.316406 251.238281 206.621094 246.898438 209.148438 C 235.949219 215.429688 225.035156 221.78125 214.164062 228.199219 C 211.609375 229.71875 206.246094 232.425781 204.15625 234.015625 C 207.742188 236.210938 218.742188 242.722656 222.40625 243.433594 Z M 101.746094 174.730469 C 103.910156 176.003906 111.179688 180.539062 113.171875 180.957031 L 113.429688 180.808594 C 113.773438 179.195312 113.507812 171.585938 113.5 169.3125 L 113.519531 141.089844 L 113.554688 125.136719 C 113.574219 122.929688 113.742188 117.035156 113.4375 115.191406 L 113.191406 114.878906 C 110.25 116.003906 106.933594 118.273438 104.132812 119.785156 C 100.269531 121.867188 94.140625 124.902344 94.066406 130.039062 C 93.898438 141.433594 93.988281 152.875 94.03125 164.273438 C 94.066406 170.203125 97.046875 172.144531 101.746094 174.730469 Z M 101.746094 174.730469 " clip-rule="nonzero"/></clipPath><linearGradient x1="473.965659" gradientTransform="matrix(0.262476, 0, 0, 0.262476, -1.732989, -72.013668)" y1="341.715408" x2="1040.909923" gradientUnits="userSpaceOnUse" y2="1299.05188" id="7db663b445"><stop stop-opacity="1" stop-color="rgb(99.21875%, 58.428955%, 11.369324%)" offset="0"/><stop stop-opacity="1" stop-color="rgb(99.21875%, 58.428955%, 11.369324%)" offset="0.125"/><stop stop-opacity="1" stop-color="rgb(99.223328%, 58.277893%, 11.412048%)" offset="0.140625"/><stop stop-opacity="1" stop-color="rgb(99.232483%, 58.004761%, 11.488342%)" offset="0.148438"/><stop stop-opacity="1" stop-color="rgb(99.240112%, 57.76062%, 11.558533%)" offset="0.15625"/><stop stop-opacity="1" stop-color="rgb(99.249268%, 57.516479%, 11.627197%)" offset="0.164062"/><stop stop-opacity="1" stop-color="rgb(99.256897%, 57.272339%, 11.695862%)" offset="0.171875"/><stop stop-opacity="1" stop-color="rgb(99.264526%, 57.028198%, 11.766052%)" offset="0.179688"/><stop stop-opacity="1" stop-color="rgb(99.273682%, 56.784058%, 11.834717%)" offset="0.1875"/><stop stop-opacity="1" stop-color="rgb(99.281311%, 56.539917%, 11.904907%)" offset="0.195312"/><stop stop-opacity="1" stop-color="rgb(99.28894%, 56.295776%, 11.973572%)" offset="0.203125"/><stop stop-opacity="1" stop-color="rgb(99.298096%, 56.051636%, 12.042236%)" offset="0.210938"/><stop stop-opacity="1" stop-color="rgb(99.305725%, 55.807495%, 12.112427%)" offset="0.21875"/><stop stop-opacity="1" stop-color="rgb(99.313354%, 55.563354%, 12.181091%)" offset="0.226563"/><stop stop-opacity="1" stop-color="rgb(99.32251%, 55.319214%, 12.249756%)" offset="0.234375"/><stop stop-opacity="1" stop-color="rgb(99.330139%, 55.075073%, 12.319946%)" offset="0.242188"/><stop stop-opacity="1" stop-color="rgb(99.337769%, 54.830933%, 12.388611%)" offset="0.25"/><stop stop-opacity="1" stop-color="rgb(99.345398%, 54.586792%, 12.457275%)" offset="0.257812"/><stop stop-opacity="1" stop-color="rgb(99.354553%, 54.342651%, 12.527466%)" offset="0.265625"/><stop stop-opacity="1" stop-color="rgb(99.362183%, 54.098511%, 12.59613%)" offset="0.273438"/><stop stop-opacity="1" stop-color="rgb(99.369812%, 53.85437%, 12.664795%)" offset="0.28125"/><stop stop-opacity="1" stop-color="rgb(99.378967%, 53.610229%, 12.734985%)" offset="0.289062"/><stop stop-opacity="1" stop-color="rgb(99.386597%, 53.366089%, 12.80365%)" offset="0.296875"/><stop stop-opacity="1" stop-color="rgb(99.394226%, 53.121948%, 12.87384%)" offset="0.304688"/><stop stop-opacity="1" stop-color="rgb(99.403381%, 52.877808%, 12.942505%)" offset="0.3125"/><stop stop-opacity="1" stop-color="rgb(99.411011%, 52.633667%, 13.011169%)" offset="0.320312"/><stop stop-opacity="1" stop-color="rgb(99.41864%, 52.389526%, 13.08136%)" offset="0.328125"/><stop stop-opacity="1" stop-color="rgb(99.42627%, 52.145386%, 13.150024%)" offset="0.335938"/><stop stop-opacity="1" stop-color="rgb(99.435425%, 51.901245%, 13.218689%)" offset="0.34375"/><stop stop-opacity="1" stop-color="rgb(99.443054%, 51.657104%, 13.288879%)" offset="0.351562"/><stop stop-opacity="1" stop-color="rgb(99.450684%, 51.412964%, 13.357544%)" offset="0.359375"/><stop stop-opacity="1" stop-color="rgb(99.459839%, 51.168823%, 13.426208%)" offset="0.365017"/><stop stop-opacity="1" stop-color="rgb(99.464417%, 51.046753%, 13.461304%)" offset="0.367188"/><stop stop-opacity="1" stop-color="rgb(99.467468%, 50.924683%, 13.496399%)" offset="0.375"/><stop stop-opacity="1" stop-color="rgb(99.475098%, 50.680542%, 13.565063%)" offset="0.382812"/><stop stop-opacity="1" stop-color="rgb(99.484253%, 50.436401%, 13.633728%)" offset="0.390625"/><stop stop-opacity="1" stop-color="rgb(99.491882%, 50.192261%, 13.703918%)" offset="0.398438"/><stop stop-opacity="1" stop-color="rgb(99.499512%, 49.94812%, 13.772583%)" offset="0.40625"/><stop stop-opacity="1" stop-color="rgb(99.508667%, 49.703979%, 13.842773%)" offset="0.414063"/><stop stop-opacity="1" stop-color="rgb(99.516296%, 49.459839%, 13.911438%)" offset="0.421875"/><stop stop-opacity="1" stop-color="rgb(99.523926%, 49.215698%, 13.980103%)" offset="0.429688"/><stop stop-opacity="1" stop-color="rgb(99.531555%, 48.971558%, 14.050293%)" offset="0.4375"/><stop stop-opacity="1" stop-color="rgb(99.54071%, 48.727417%, 14.118958%)" offset="0.445312"/><stop stop-opacity="1" stop-color="rgb(99.54834%, 48.483276%, 14.187622%)" offset="0.453125"/><stop stop-opacity="1" stop-color="rgb(99.555969%, 48.239136%, 14.257812%)" offset="0.460938"/><stop stop-opacity="1" stop-color="rgb(99.565125%, 47.994995%, 14.326477%)" offset="0.46875"/><stop stop-opacity="1" stop-color="rgb(99.572754%, 47.750854%, 14.395142%)" offset="0.476563"/><stop stop-opacity="1" stop-color="rgb(99.580383%, 47.506714%, 14.465332%)" offset="0.484375"/><stop stop-opacity="1" stop-color="rgb(99.589539%, 47.262573%, 14.533997%)" offset="0.492188"/><stop stop-opacity="1" stop-color="rgb(99.597168%, 47.018433%, 14.602661%)" offset="0.5"/><stop stop-opacity="1" stop-color="rgb(99.604797%, 46.774292%, 14.672852%)" offset="0.507812"/><stop stop-opacity="1" stop-color="rgb(99.612427%, 46.530151%, 14.741516%)" offset="0.515625"/><stop stop-opacity="1" stop-color="rgb(99.621582%, 46.286011%, 14.810181%)" offset="0.523438"/><stop stop-opacity="1" stop-color="rgb(99.629211%, 46.04187%, 14.880371%)" offset="0.53125"/><stop stop-opacity="1" stop-color="rgb(99.636841%, 45.797729%, 14.949036%)" offset="0.539063"/><stop stop-opacity="1" stop-color="rgb(99.645996%, 45.553589%, 15.019226%)" offset="0.546875"/><stop stop-opacity="1" stop-color="rgb(99.653625%, 45.309448%, 15.087891%)" offset="0.554688"/><stop stop-opacity="1" stop-color="rgb(99.661255%, 45.065308%, 15.156555%)" offset="0.5625"/><stop stop-opacity="1" stop-color="rgb(99.67041%, 44.821167%, 15.226746%)" offset="0.570312"/><stop stop-opacity="1" stop-color="rgb(99.67804%, 44.577026%, 15.29541%)" offset="0.578125"/><stop stop-opacity="1" stop-color="rgb(99.685669%, 44.332886%, 15.364075%)" offset="0.585938"/><stop stop-opacity="1" stop-color="rgb(99.694824%, 44.088745%, 15.434265%)" offset="0.59375"/><stop stop-opacity="1" stop-color="rgb(99.702454%, 43.844604%, 15.50293%)" offset="0.601562"/><stop stop-opacity="1" stop-color="rgb(99.710083%, 43.600464%, 15.571594%)" offset="0.609375"/><stop stop-opacity="1" stop-color="rgb(99.717712%, 43.356323%, 15.641785%)" offset="0.617188"/><stop stop-opacity="1" stop-color="rgb(99.726868%, 43.112183%, 15.710449%)" offset="0.625"/><stop stop-opacity="1" stop-color="rgb(99.734497%, 42.868042%, 15.779114%)" offset="0.632812"/><stop stop-opacity="1" stop-color="rgb(99.742126%, 42.623901%, 15.849304%)" offset="0.634983"/><stop stop-opacity="1" stop-color="rgb(99.746704%, 42.501831%, 15.884399%)" offset="0.640625"/><stop stop-opacity="1" stop-color="rgb(99.751282%, 42.379761%, 15.917969%)" offset="0.648438"/><stop stop-opacity="1" stop-color="rgb(99.758911%, 42.13562%, 15.988159%)" offset="0.65625"/><stop stop-opacity="1" stop-color="rgb(99.766541%, 41.891479%, 16.056824%)" offset="0.664062"/><stop stop-opacity="1" stop-color="rgb(99.775696%, 41.647339%, 16.125488%)" offset="0.671875"/><stop stop-opacity="1" stop-color="rgb(99.783325%, 41.403198%, 16.195679%)" offset="0.679688"/><stop stop-opacity="1" stop-color="rgb(99.790955%, 41.159058%, 16.264343%)" offset="0.6875"/><stop stop-opacity="1" stop-color="rgb(99.798584%, 40.914917%, 16.333008%)" offset="0.695312"/><stop stop-opacity="1" stop-color="rgb(99.807739%, 40.670776%, 16.403198%)" offset="0.703125"/><stop stop-opacity="1" stop-color="rgb(99.815369%, 40.426636%, 16.471863%)" offset="0.710938"/><stop stop-opacity="1" stop-color="rgb(99.822998%, 40.182495%, 16.540527%)" offset="0.71875"/><stop stop-opacity="1" stop-color="rgb(99.832153%, 39.938354%, 16.610718%)" offset="0.726562"/><stop stop-opacity="1" stop-color="rgb(99.839783%, 39.694214%, 16.679382%)" offset="0.734375"/><stop stop-opacity="1" stop-color="rgb(99.847412%, 39.450073%, 16.748047%)" offset="0.742188"/><stop stop-opacity="1" stop-color="rgb(99.856567%, 39.205933%, 16.818237%)" offset="0.75"/><stop stop-opacity="1" stop-color="rgb(99.864197%, 38.961792%, 16.886902%)" offset="0.757812"/><stop stop-opacity="1" stop-color="rgb(99.871826%, 38.717651%, 16.957092%)" offset="0.765625"/><stop stop-opacity="1" stop-color="rgb(99.880981%, 38.473511%, 17.025757%)" offset="0.773438"/><stop stop-opacity="1" stop-color="rgb(99.888611%, 38.22937%, 17.094421%)" offset="0.78125"/><stop stop-opacity="1" stop-color="rgb(99.89624%, 37.985229%, 17.164612%)" offset="0.789062"/><stop stop-opacity="1" stop-color="rgb(99.90387%, 37.741089%, 17.233276%)" offset="0.796875"/><stop stop-opacity="1" stop-color="rgb(99.913025%, 37.496948%, 17.301941%)" offset="0.804688"/><stop stop-opacity="1" stop-color="rgb(99.920654%, 37.252808%, 17.372131%)" offset="0.8125"/><stop stop-opacity="1" stop-color="rgb(99.928284%, 37.008667%, 17.440796%)" offset="0.820312"/><stop stop-opacity="1" stop-color="rgb(99.937439%, 36.764526%, 17.50946%)" offset="0.828125"/><stop stop-opacity="1" stop-color="rgb(99.945068%, 36.520386%, 17.579651%)" offset="0.835938"/><stop stop-opacity="1" stop-color="rgb(99.952698%, 36.276245%, 17.648315%)" offset="0.84375"/><stop stop-opacity="1" stop-color="rgb(99.961853%, 36.032104%, 17.71698%)" offset="0.851562"/><stop stop-opacity="1" stop-color="rgb(99.969482%, 35.787964%, 17.78717%)" offset="0.859375"/><stop stop-opacity="1" stop-color="rgb(99.977112%, 35.543823%, 17.855835%)" offset="0.867188"/><stop stop-opacity="1" stop-color="rgb(99.984741%, 35.299683%, 17.926025%)" offset="0.875"/><stop stop-opacity="1" stop-color="rgb(99.993896%, 35.038757%, 17.999268%)" offset="1"/></linearGradient></defs><g clip-path="url(#9a93105f8c)"><g clip-path="url(#fe924a05d1)"><path fill="url(#7db663b445)" d="M 83.113281 41.105469 L 83.113281 256.621094 L 292.308594 256.621094 L 292.308594 41.105469 Z M 83.113281 41.105469 " fill-rule="nonzero"/></g></g><g fill="#000000" fill-opacity="1"><g transform="translate(36.468752, 300.525098)"><g><path d="M 12.15625 0.296875 C 10.570312 0.296875 9.113281 0.03125 7.78125 -0.5 C 6.457031 -1.03125 5.304688 -1.78125 4.328125 -2.75 C 3.359375 -3.71875 2.609375 -4.863281 2.078125 -6.1875 C 1.554688 -7.519531 1.296875 -8.976562 1.296875 -10.5625 C 1.296875 -12.125 1.566406 -13.5625 2.109375 -14.875 C 2.660156 -16.195312 3.4375 -17.347656 4.4375 -18.328125 C 5.4375 -19.304688 6.609375 -20.066406 7.953125 -20.609375 C 9.304688 -21.148438 10.773438 -21.421875 12.359375 -21.421875 C 13.359375 -21.421875 14.335938 -21.289062 15.296875 -21.03125 C 16.253906 -20.769531 17.148438 -20.382812 17.984375 -19.875 C 18.816406 -19.363281 19.53125 -18.75 20.125 -18.03125 L 16.984375 -14.453125 C 16.359375 -15.140625 15.660156 -15.671875 14.890625 -16.046875 C 14.117188 -16.429688 13.265625 -16.625 12.328125 -16.625 C 11.523438 -16.625 10.769531 -16.484375 10.0625 -16.203125 C 9.351562 -15.921875 8.738281 -15.507812 8.21875 -14.96875 C 7.695312 -14.425781 7.285156 -13.785156 6.984375 -13.046875 C 6.691406 -12.304688 6.546875 -11.46875 6.546875 -10.53125 C 6.546875 -9.613281 6.6875 -8.78125 6.96875 -8.03125 C 7.257812 -7.28125 7.679688 -6.640625 8.234375 -6.109375 C 8.785156 -5.578125 9.445312 -5.171875 10.21875 -4.890625 C 10.988281 -4.609375 11.84375 -4.46875 12.78125 -4.46875 C 13.394531 -4.46875 13.988281 -4.550781 14.5625 -4.71875 C 15.132812 -4.894531 15.671875 -5.140625 16.171875 -5.453125 C 16.671875 -5.773438 17.097656 -6.140625 17.453125 -6.546875 L 19.953125 -2.578125 C 19.472656 -2.035156 18.816406 -1.546875 17.984375 -1.109375 C 17.148438 -0.671875 16.226562 -0.328125 15.21875 -0.078125 C 14.207031 0.171875 13.1875 0.296875 12.15625 0.296875 Z M 12.15625 0.296875 "/></g></g></g><g fill="#000000" fill-opacity="1"><g transform="translate(57.250673, 300.525098)"><g><path d="M 2.21875 0 L 2.21875 -4.3125 L 5.765625 -4.3125 L 5.765625 -16.6875 L 2.21875 -16.6875 L 2.21875 -21 L 14.4375 -21 L 14.4375 -16.6875 L 10.890625 -16.6875 L 10.890625 -4.3125 L 14.4375 -4.3125 L 14.4375 0 Z M 2.21875 0 "/></g></g></g><g fill="#000000" fill-opacity="1"><g transform="translate(73.444313, 300.525098)"><g><path d="M 12.15625 0.296875 C 10.570312 0.296875 9.113281 0.03125 7.78125 -0.5 C 6.457031 -1.03125 5.304688 -1.78125 4.328125 -2.75 C 3.359375 -3.71875 2.609375 -4.863281 2.078125 -6.1875 C 1.554688 -7.519531 1.296875 -8.976562 1.296875 -10.5625 C 1.296875 -12.125 1.566406 -13.5625 2.109375 -14.875 C 2.660156 -16.195312 3.4375 -17.347656 4.4375 -18.328125 C 5.4375 -19.304688 6.609375 -20.066406 7.953125 -20.609375 C 9.304688 -21.148438 10.773438 -21.421875 12.359375 -21.421875 C 13.359375 -21.421875 14.335938 -21.289062 15.296875 -21.03125 C 16.253906 -20.769531 17.148438 -20.382812 17.984375 -19.875 C 18.816406 -19.363281 19.53125 -18.75 20.125 -18.03125 L 16.984375 -14.453125 C 16.359375 -15.140625 15.660156 -15.671875 14.890625 -16.046875 C 14.117188 -16.429688 13.265625 -16.625 12.328125 -16.625 C 11.523438 -16.625 10.769531 -16.484375 10.0625 -16.203125 C 9.351562 -15.921875 8.738281 -15.507812 8.21875 -14.96875 C 7.695312 -14.425781 7.285156 -13.785156 6.984375 -13.046875 C 6.691406 -12.304688 6.546875 -11.46875 6.546875 -10.53125 C 6.546875 -9.613281 6.6875 -8.78125 6.96875 -8.03125 C 7.257812 -7.28125 7.679688 -6.640625 8.234375 -6.109375 C 8.785156 -5.578125 9.445312 -5.171875 10.21875 -4.890625 C 10.988281 -4.609375 11.84375 -4.46875 12.78125 -4.46875 C 13.394531 -4.46875 13.988281 -4.550781 14.5625 -4.71875 C 15.132812 -4.894531 15.671875 -5.140625 16.171875 -5.453125 C 16.671875 -5.773438 17.097656 -6.140625 17.453125 -6.546875 L 19.953125 -2.578125 C 19.472656 -2.035156 18.816406 -1.546875 17.984375 -1.109375 C 17.148438 -0.671875 16.226562 -0.328125 15.21875 -0.078125 C 14.207031 0.171875 13.1875 0.296875 12.15625 0.296875 Z M 12.15625 0.296875 "/></g></g></g><g fill="#000000" fill-opacity="1"><g transform="translate(94.226233, 300.525098)"><g><path d="M 2.609375 0 L 2.609375 -21 L 7.734375 -21 L 7.734375 -4.53125 L 17.09375 -4.53125 L 17.09375 0 Z M 2.609375 0 "/></g></g></g><g fill="#000000" fill-opacity="1"><g transform="translate(111.919268, 300.525098)"><g><path d="M 12.1875 0.296875 C 10.601562 0.296875 9.144531 0.03125 7.8125 -0.5 C 6.476562 -1.039062 5.328125 -1.796875 4.359375 -2.765625 C 3.390625 -3.742188 2.632812 -4.894531 2.09375 -6.21875 C 1.5625 -7.550781 1.296875 -9.007812 1.296875 -10.59375 C 1.296875 -12.15625 1.5625 -13.597656 2.09375 -14.921875 C 2.632812 -16.253906 3.390625 -17.410156 4.359375 -18.390625 C 5.328125 -19.367188 6.476562 -20.128906 7.8125 -20.671875 C 9.144531 -21.210938 10.601562 -21.484375 12.1875 -21.484375 C 13.738281 -21.484375 15.175781 -21.210938 16.5 -20.671875 C 17.820312 -20.128906 18.96875 -19.367188 19.9375 -18.390625 C 20.90625 -17.410156 21.660156 -16.253906 22.203125 -14.921875 C 22.742188 -13.597656 23.015625 -12.144531 23.015625 -10.5625 C 23.015625 -9 22.742188 -7.554688 22.203125 -6.234375 C 21.660156 -4.921875 20.90625 -3.769531 19.9375 -2.78125 C 18.96875 -1.800781 17.820312 -1.039062 16.5 -0.5 C 15.175781 0.03125 13.738281 0.296875 12.1875 0.296875 Z M 12.1875 -4.53125 C 13 -4.53125 13.742188 -4.679688 14.421875 -4.984375 C 15.109375 -5.285156 15.707031 -5.703125 16.21875 -6.234375 C 16.726562 -6.773438 17.117188 -7.414062 17.390625 -8.15625 C 17.671875 -8.894531 17.8125 -9.695312 17.8125 -10.5625 C 17.8125 -11.4375 17.671875 -12.242188 17.390625 -12.984375 C 17.117188 -13.722656 16.726562 -14.367188 16.21875 -14.921875 C 15.707031 -15.472656 15.109375 -15.898438 14.421875 -16.203125 C 13.742188 -16.503906 13 -16.65625 12.1875 -16.65625 C 11.363281 -16.65625 10.601562 -16.503906 9.90625 -16.203125 C 9.21875 -15.898438 8.617188 -15.472656 8.109375 -14.921875 C 7.597656 -14.367188 7.203125 -13.722656 6.921875 -12.984375 C 6.648438 -12.242188 6.515625 -11.4375 6.515625 -10.5625 C 6.515625 -9.394531 6.757812 -8.359375 7.25 -7.453125 C 7.738281 -6.546875 8.40625 -5.832031 9.25 -5.3125 C 10.101562 -4.789062 11.082031 -4.53125 12.1875 -4.53125 Z M 12.1875 -4.53125 "/></g></g></g><g fill="#000000" fill-opacity="1"><g transform="translate(136.209832, 300.525098)"><g/></g></g><g fill="#000000" fill-opacity="1"><g transform="translate(145.776119, 300.525098)"><g><path d="M 2.21875 0 L 2.21875 -4.3125 L 5.765625 -4.3125 L 5.765625 -16.6875 L 2.21875 -16.6875 L 2.21875 -21 L 14.4375 -21 L 14.4375 -16.6875 L 10.890625 -16.6875 L 10.890625 -4.3125 L 14.4375 -4.3125 L 14.4375 0 Z M 2.21875 0 "/></g></g></g><g fill="#000000" fill-opacity="1"><g transform="translate(162.41965, 300.525098)"><g><path d="M 2.609375 0 L 2.609375 -21 L 7.203125 -21 L 18.234375 -6.03125 L 17.25 -6.15625 C 17.113281 -7.269531 16.992188 -8.3125 16.890625 -9.28125 C 16.785156 -10.25 16.71875 -11.265625 16.6875 -12.328125 C 16.664062 -13.390625 16.65625 -14.609375 16.65625 -15.984375 L 16.65625 -21 L 21.625 -21 L 21.625 0 L 16.984375 0 L 5.515625 -15.421875 L 6.984375 -15.203125 C 7.128906 -13.984375 7.238281 -12.972656 7.3125 -12.171875 C 7.394531 -11.378906 7.457031 -10.695312 7.5 -10.125 C 7.539062 -9.550781 7.570312 -9.019531 7.59375 -8.53125 C 7.613281 -8.039062 7.625 -7.5 7.625 -6.90625 L 7.625 0 Z M 2.609375 0 "/></g></g></g><g fill="#000000" fill-opacity="1"><g transform="translate(186.650235, 300.525098)"><g><path d="M 7.171875 0 L 7.171875 -16.46875 L 0.984375 -16.46875 L 0.984375 -21 L 18.6875 -21 L 18.6875 -16.46875 L 12.296875 -16.46875 L 12.296875 0 Z M 7.171875 0 "/></g></g></g><g fill="#000000" fill-opacity="1"><g transform="translate(206.292598, 300.525098)"><g><path d="M 2.609375 0 L 2.609375 -21 L 17.25 -21 L 17.25 -16.625 L 7.625 -16.625 L 7.625 -4.375 L 17.578125 -4.375 L 17.578125 0 Z M 5.046875 -8.578125 L 5.046875 -12.78125 L 15.9375 -12.78125 L 15.9375 -8.578125 Z M 5.046875 -8.578125 "/></g></g></g><g fill="#000000" fill-opacity="1"><g transform="translate(225.63508, 300.525098)"><g><path d="M 12.359375 0.296875 C 10.679688 0.296875 9.164062 0.03125 7.8125 -0.5 C 6.46875 -1.039062 5.300781 -1.800781 4.3125 -2.78125 C 3.332031 -3.769531 2.582031 -4.921875 2.0625 -6.234375 C 1.550781 -7.554688 1.296875 -9 1.296875 -10.5625 C 1.296875 -12.125 1.570312 -13.5625 2.125 -14.875 C 2.6875 -16.195312 3.472656 -17.347656 4.484375 -18.328125 C 5.492188 -19.304688 6.691406 -20.066406 8.078125 -20.609375 C 9.472656 -21.148438 11 -21.421875 12.65625 -21.421875 C 13.800781 -21.421875 14.882812 -21.269531 15.90625 -20.96875 C 16.9375 -20.664062 17.878906 -20.253906 18.734375 -19.734375 C 19.585938 -19.210938 20.289062 -18.625 20.84375 -17.96875 L 17.703125 -14.671875 C 16.984375 -15.347656 16.207031 -15.878906 15.375 -16.265625 C 14.539062 -16.660156 13.601562 -16.859375 12.5625 -16.859375 C 11.707031 -16.859375 10.914062 -16.703125 10.1875 -16.390625 C 9.457031 -16.085938 8.816406 -15.648438 8.265625 -15.078125 C 7.710938 -14.503906 7.285156 -13.832031 6.984375 -13.0625 C 6.691406 -12.289062 6.546875 -11.457031 6.546875 -10.5625 C 6.546875 -9.65625 6.703125 -8.820312 7.015625 -8.0625 C 7.335938 -7.3125 7.78125 -6.648438 8.34375 -6.078125 C 8.914062 -5.503906 9.582031 -5.054688 10.34375 -4.734375 C 11.101562 -4.421875 11.925781 -4.265625 12.8125 -4.265625 C 13.425781 -4.265625 14 -4.359375 14.53125 -4.546875 C 15.0625 -4.734375 15.53125 -4.988281 15.9375 -5.3125 C 16.351562 -5.644531 16.675781 -6.035156 16.90625 -6.484375 C 17.132812 -6.941406 17.25 -7.429688 17.25 -7.953125 L 17.25 -8.734375 L 17.90625 -7.703125 L 12.1875 -7.703125 L 12.1875 -11.765625 L 22.046875 -11.765625 C 22.085938 -11.546875 22.117188 -11.242188 22.140625 -10.859375 C 22.160156 -10.484375 22.175781 -10.117188 22.1875 -9.765625 C 22.195312 -9.410156 22.203125 -9.132812 22.203125 -8.9375 C 22.203125 -7.582031 21.957031 -6.335938 21.46875 -5.203125 C 20.976562 -4.078125 20.285156 -3.101562 19.390625 -2.28125 C 18.503906 -1.457031 17.457031 -0.820312 16.25 -0.375 C 15.050781 0.0703125 13.753906 0.296875 12.359375 0.296875 Z M 12.359375 0.296875 "/></g></g></g><g fill="#000000" fill-opacity="1"><g transform="translate(249.055973, 300.525098)"><g><path d="M 2.609375 0 L 2.609375 -21 L 12.125 -21 C 13.476562 -21 14.695312 -20.707031 15.78125 -20.125 C 16.863281 -19.550781 17.71875 -18.757812 18.34375 -17.75 C 18.976562 -16.738281 19.296875 -15.582031 19.296875 -14.28125 C 19.296875 -12.957031 18.976562 -11.773438 18.34375 -10.734375 C 17.71875 -9.703125 16.863281 -8.878906 15.78125 -8.265625 C 14.695312 -7.648438 13.476562 -7.34375 12.125 -7.34375 L 7.5 -7.34375 L 7.5 0 Z M 14.28125 0 L 8.9375 -9.515625 L 14.1875 -10.265625 L 20.125 0.03125 Z M 7.5 -11.34375 L 11.671875 -11.34375 C 12.191406 -11.34375 12.644531 -11.457031 13.03125 -11.6875 C 13.425781 -11.914062 13.726562 -12.226562 13.9375 -12.625 C 14.144531 -13.03125 14.25 -13.492188 14.25 -14.015625 C 14.25 -14.546875 14.125 -15.007812 13.875 -15.40625 C 13.625 -15.8125 13.273438 -16.128906 12.828125 -16.359375 C 12.378906 -16.585938 11.84375 -16.703125 11.21875 -16.703125 L 7.5 -16.703125 Z M 7.5 -11.34375 "/></g></g></g><g fill="#000000" fill-opacity="1"><g transform="translate(270.167758, 300.525098)"><g><path d="M 0 0 L 8.3125 -21 L 12.65625 -21 L 20.90625 0 L 15.75 0 L 11.765625 -10.65625 C 11.617188 -11.070312 11.460938 -11.519531 11.296875 -12 C 11.128906 -12.476562 10.960938 -12.976562 10.796875 -13.5 C 10.640625 -14.019531 10.488281 -14.519531 10.34375 -15 C 10.207031 -15.476562 10.085938 -15.925781 9.984375 -16.34375 L 10.859375 -16.375 C 10.742188 -15.875 10.613281 -15.382812 10.46875 -14.90625 C 10.332031 -14.425781 10.179688 -13.945312 10.015625 -13.46875 C 9.859375 -12.988281 9.691406 -12.515625 9.515625 -12.046875 C 9.347656 -11.578125 9.175781 -11.09375 9 -10.59375 L 5.046875 0 Z M 3.953125 -4.015625 L 5.578125 -7.921875 L 15.1875 -7.921875 L 16.796875 -4.015625 Z M 3.953125 -4.015625 "/></g></g></g><g fill="#000000" fill-opacity="1"><g transform="translate(291.069658, 300.525098)"><g><path d="M 2.609375 0 L 2.609375 -21 L 11.453125 -21 C 12.992188 -21 14.40625 -20.742188 15.6875 -20.234375 C 16.96875 -19.722656 18.066406 -19.003906 18.984375 -18.078125 C 19.910156 -17.148438 20.625 -16.039062 21.125 -14.75 C 21.625 -13.457031 21.875 -12.039062 21.875 -10.5 C 21.875 -8.9375 21.625 -7.515625 21.125 -6.234375 C 20.625 -4.953125 19.910156 -3.847656 18.984375 -2.921875 C 18.066406 -1.992188 16.972656 -1.273438 15.703125 -0.765625 C 14.429688 -0.253906 13.015625 0 11.453125 0 Z M 7.734375 -3.546875 L 7.078125 -4.53125 L 11.3125 -4.53125 C 12.132812 -4.53125 12.875 -4.671875 13.53125 -4.953125 C 14.1875 -5.234375 14.75 -5.632812 15.21875 -6.15625 C 15.695312 -6.6875 16.0625 -7.316406 16.3125 -8.046875 C 16.5625 -8.785156 16.6875 -9.601562 16.6875 -10.5 C 16.6875 -11.394531 16.5625 -12.207031 16.3125 -12.9375 C 16.0625 -13.675781 15.695312 -14.304688 15.21875 -14.828125 C 14.75 -15.359375 14.1875 -15.765625 13.53125 -16.046875 C 12.875 -16.328125 12.132812 -16.46875 11.3125 -16.46875 L 6.984375 -16.46875 L 7.734375 -17.40625 Z M 7.734375 -3.546875 "/></g></g></g><g fill="#000000" fill-opacity="1"><g transform="translate(314.220642, 300.525098)"><g><path d="M 12.1875 0.296875 C 10.601562 0.296875 9.144531 0.03125 7.8125 -0.5 C 6.476562 -1.039062 5.328125 -1.796875 4.359375 -2.765625 C 3.390625 -3.742188 2.632812 -4.894531 2.09375 -6.21875 C 1.5625 -7.550781 1.296875 -9.007812 1.296875 -10.59375 C 1.296875 -12.15625 1.5625 -13.597656 2.09375 -14.921875 C 2.632812 -16.253906 3.390625 -17.410156 4.359375 -18.390625 C 5.328125 -19.367188 6.476562 -20.128906 7.8125 -20.671875 C 9.144531 -21.210938 10.601562 -21.484375 12.1875 -21.484375 C 13.738281 -21.484375 15.175781 -21.210938 16.5 -20.671875 C 17.820312 -20.128906 18.96875 -19.367188 19.9375 -18.390625 C 20.90625 -17.410156 21.660156 -16.253906 22.203125 -14.921875 C 22.742188 -13.597656 23.015625 -12.144531 23.015625 -10.5625 C 23.015625 -9 22.742188 -7.554688 22.203125 -6.234375 C 21.660156 -4.921875 20.90625 -3.769531 19.9375 -2.78125 C 18.96875 -1.800781 17.820312 -1.039062 16.5 -0.5 C 15.175781 0.03125 13.738281 0.296875 12.1875 0.296875 Z M 12.1875 -4.53125 C 13 -4.53125 13.742188 -4.679688 14.421875 -4.984375 C 15.109375 -5.285156 15.707031 -5.703125 16.21875 -6.234375 C 16.726562 -6.773438 17.117188 -7.414062 17.390625 -8.15625 C 17.671875 -8.894531 17.8125 -9.695312 17.8125 -10.5625 C 17.8125 -11.4375 17.671875 -12.242188 17.390625 -12.984375 C 17.117188 -13.722656 16.726562 -14.367188 16.21875 -14.921875 C 15.707031 -15.472656 15.109375 -15.898438 14.421875 -16.203125 C 13.742188 -16.503906 13 -16.65625 12.1875 -16.65625 C 11.363281 -16.65625 10.601562 -16.503906 9.90625 -16.203125 C 9.21875 -15.898438 8.617188 -15.472656 8.109375 -14.921875 C 7.597656 -14.367188 7.203125 -13.722656 6.921875 -12.984375 C 6.648438 -12.242188 6.515625 -11.4375 6.515625 -10.5625 C 6.515625 -9.394531 6.757812 -8.359375 7.25 -7.453125 C 7.738281 -6.546875 8.40625 -5.832031 9.25 -5.3125 C 10.101562 -4.789062 11.082031 -4.53125 12.1875 -4.53125 Z M 12.1875 -4.53125 "/></g></g></g><g fill="#000000" fill-opacity="1"><g transform="translate(61.88672, 325.275096)"><g><path d="M 1.46875 0 L 1.46875 -10.5 L 5.75 -10.5 C 6.3125 -10.5 6.828125 -10.351562 7.296875 -10.0625 C 7.765625 -9.78125 8.132812 -9.394531 8.40625 -8.90625 C 8.6875 -8.414062 8.828125 -7.875 8.828125 -7.28125 C 8.828125 -6.675781 8.6875 -6.128906 8.40625 -5.640625 C 8.132812 -5.148438 7.765625 -4.753906 7.296875 -4.453125 C 6.828125 -4.160156 6.3125 -4.015625 5.75 -4.015625 L 3.09375 -4.015625 L 3.09375 0 Z M 3.09375 -5.578125 L 5.71875 -5.578125 C 5.988281 -5.578125 6.234375 -5.65625 6.453125 -5.8125 C 6.671875 -5.96875 6.847656 -6.171875 6.984375 -6.421875 C 7.117188 -6.679688 7.1875 -6.96875 7.1875 -7.28125 C 7.1875 -7.582031 7.117188 -7.859375 6.984375 -8.109375 C 6.847656 -8.359375 6.671875 -8.554688 6.453125 -8.703125 C 6.234375 -8.859375 5.988281 -8.9375 5.71875 -8.9375 L 3.09375 -8.9375 Z M 3.09375 -5.578125 "/></g></g></g><g fill="#000000" fill-opacity="1"><g transform="translate(71.396714, 325.275096)"><g><path d="M 1.109375 0 L 1.109375 -11.09375 L 2.65625 -11.09375 L 2.65625 0 Z M 1.109375 0 "/></g></g></g><g fill="#000000" fill-opacity="1"><g transform="translate(75.011707, 325.275096)"><g><path d="M 5.75 0 L 5.75 -5.125 C 5.75 -5.570312 5.585938 -5.929688 5.265625 -6.203125 C 4.953125 -6.472656 4.554688 -6.609375 4.078125 -6.609375 C 3.640625 -6.609375 3.242188 -6.519531 2.890625 -6.34375 C 2.535156 -6.164062 2.210938 -5.890625 1.921875 -5.515625 L 0.921875 -6.53125 C 1.390625 -7.039062 1.894531 -7.421875 2.4375 -7.671875 C 2.976562 -7.921875 3.566406 -8.046875 4.203125 -8.046875 C 4.796875 -8.046875 5.3125 -7.941406 5.75 -7.734375 C 6.195312 -7.535156 6.539062 -7.242188 6.78125 -6.859375 C 7.019531 -6.472656 7.140625 -6.003906 7.140625 -5.453125 L 7.140625 0 Z M 3.390625 0.15625 C 2.878906 0.15625 2.421875 0.0546875 2.015625 -0.140625 C 1.617188 -0.347656 1.300781 -0.628906 1.0625 -0.984375 C 0.832031 -1.335938 0.71875 -1.753906 0.71875 -2.234375 C 0.71875 -2.648438 0.789062 -3.019531 0.9375 -3.34375 C 1.09375 -3.664062 1.316406 -3.929688 1.609375 -4.140625 C 1.910156 -4.347656 2.28125 -4.503906 2.71875 -4.609375 C 3.164062 -4.722656 3.679688 -4.78125 4.265625 -4.78125 L 6.453125 -4.78125 L 6.3125 -3.5625 L 4.0625 -3.5625 C 3.757812 -3.5625 3.488281 -3.53125 3.25 -3.46875 C 3.019531 -3.414062 2.820312 -3.332031 2.65625 -3.21875 C 2.5 -3.101562 2.378906 -2.96875 2.296875 -2.8125 C 2.210938 -2.65625 2.171875 -2.472656 2.171875 -2.265625 C 2.171875 -2.046875 2.222656 -1.851562 2.328125 -1.6875 C 2.441406 -1.519531 2.59375 -1.390625 2.78125 -1.296875 C 2.976562 -1.210938 3.203125 -1.171875 3.453125 -1.171875 C 3.804688 -1.171875 4.144531 -1.234375 4.46875 -1.359375 C 4.800781 -1.484375 5.09375 -1.65625 5.34375 -1.875 C 5.601562 -2.09375 5.800781 -2.335938 5.9375 -2.609375 L 6.296875 -1.609375 C 6.085938 -1.253906 5.828125 -0.945312 5.515625 -0.6875 C 5.210938 -0.425781 4.878906 -0.21875 4.515625 -0.0625 C 4.148438 0.0820312 3.773438 0.15625 3.390625 0.15625 Z M 3.390625 0.15625 "/></g></g></g><g fill="#000000" fill-opacity="1"><g transform="translate(83.021701, 325.275096)"><g><path d="M 2.0625 0 L 2.0625 -9.890625 L 3.59375 -9.890625 L 3.59375 0 Z M 0.421875 -6.375 L 0.421875 -7.875 L 5.4375 -7.875 L 5.4375 -6.375 Z M 0.421875 -6.375 "/></g></g></g><g fill="#000000" fill-opacity="1"><g transform="translate(88.706691, 325.275096)"><g><path d="M 5.75 0 L 5.75 -5.125 C 5.75 -5.570312 5.585938 -5.929688 5.265625 -6.203125 C 4.953125 -6.472656 4.554688 -6.609375 4.078125 -6.609375 C 3.640625 -6.609375 3.242188 -6.519531 2.890625 -6.34375 C 2.535156 -6.164062 2.210938 -5.890625 1.921875 -5.515625 L 0.921875 -6.53125 C 1.390625 -7.039062 1.894531 -7.421875 2.4375 -7.671875 C 2.976562 -7.921875 3.566406 -8.046875 4.203125 -8.046875 C 4.796875 -8.046875 5.3125 -7.941406 5.75 -7.734375 C 6.195312 -7.535156 6.539062 -7.242188 6.78125 -6.859375 C 7.019531 -6.472656 7.140625 -6.003906 7.140625 -5.453125 L 7.140625 0 Z M 3.390625 0.15625 C 2.878906 0.15625 2.421875 0.0546875 2.015625 -0.140625 C 1.617188 -0.347656 1.300781 -0.628906 1.0625 -0.984375 C 0.832031 -1.335938 0.71875 -1.753906 0.71875 -2.234375 C 0.71875 -2.648438 0.789062 -3.019531 0.9375 -3.34375 C 1.09375 -3.664062 1.316406 -3.929688 1.609375 -4.140625 C 1.910156 -4.347656 2.28125 -4.503906 2.71875 -4.609375 C 3.164062 -4.722656 3.679688 -4.78125 4.265625 -4.78125 L 6.453125 -4.78125 L 6.3125 -3.5625 L 4.0625 -3.5625 C 3.757812 -3.5625 3.488281 -3.53125 3.25 -3.46875 C 3.019531 -3.414062 2.820312 -3.332031 2.65625 -3.21875 C 2.5 -3.101562 2.378906 -2.96875 2.296875 -2.8125 C 2.210938 -2.65625 2.171875 -2.472656 2.171875 -2.265625 C 2.171875 -2.046875 2.222656 -1.851562 2.328125 -1.6875 C 2.441406 -1.519531 2.59375 -1.390625 2.78125 -1.296875 C 2.976562 -1.210938 3.203125 -1.171875 3.453125 -1.171875 C 3.804688 -1.171875 4.144531 -1.234375 4.46875 -1.359375 C 4.800781 -1.484375 5.09375 -1.65625 5.34375 -1.875 C 5.601562 -2.09375 5.800781 -2.335938 5.9375 -2.609375 L 6.296875 -1.609375 C 6.085938 -1.253906 5.828125 -0.945312 5.515625 -0.6875 C 5.210938 -0.425781 4.878906 -0.21875 4.515625 -0.0625 C 4.148438 0.0820312 3.773438 0.15625 3.390625 0.15625 Z M 3.390625 0.15625 "/></g></g></g><g fill="#000000" fill-opacity="1"><g transform="translate(96.716685, 325.275096)"><g><path d="M 1.9375 0 L 1.9375 -8.765625 C 1.9375 -9.210938 2.035156 -9.609375 2.234375 -9.953125 C 2.429688 -10.304688 2.703125 -10.582031 3.046875 -10.78125 C 3.398438 -10.976562 3.8125 -11.078125 4.28125 -11.078125 C 4.59375 -11.078125 4.890625 -11.015625 5.171875 -10.890625 C 5.453125 -10.773438 5.675781 -10.617188 5.84375 -10.421875 L 5.328125 -9.234375 C 5.191406 -9.359375 5.046875 -9.457031 4.890625 -9.53125 C 4.742188 -9.601562 4.597656 -9.640625 4.453125 -9.640625 C 4.242188 -9.640625 4.066406 -9.609375 3.921875 -9.546875 C 3.773438 -9.484375 3.664062 -9.382812 3.59375 -9.25 C 3.53125 -9.113281 3.5 -8.953125 3.5 -8.765625 L 3.5 0 L 2.71875 0 C 2.582031 0 2.445312 0 2.3125 0 C 2.1875 0 2.0625 0 1.9375 0 Z M 0.671875 -6.3125 L 0.671875 -7.734375 L 5.359375 -7.734375 L 5.359375 -6.3125 Z M 0.671875 -6.3125 "/></g></g></g><g fill="#000000" fill-opacity="1"><g transform="translate(102.311678, 325.275096)"><g><path d="M 4.625 0.15625 C 3.851562 0.15625 3.164062 -0.0195312 2.5625 -0.375 C 1.957031 -0.738281 1.476562 -1.226562 1.125 -1.84375 C 0.769531 -2.457031 0.59375 -3.15625 0.59375 -3.9375 C 0.59375 -4.726562 0.769531 -5.429688 1.125 -6.046875 C 1.476562 -6.660156 1.957031 -7.144531 2.5625 -7.5 C 3.164062 -7.863281 3.851562 -8.046875 4.625 -8.046875 C 5.382812 -8.046875 6.066406 -7.863281 6.671875 -7.5 C 7.273438 -7.144531 7.75 -6.660156 8.09375 -6.046875 C 8.445312 -5.429688 8.625 -4.726562 8.625 -3.9375 C 8.625 -3.15625 8.445312 -2.457031 8.09375 -1.84375 C 7.75 -1.226562 7.273438 -0.738281 6.671875 -0.375 C 6.066406 -0.0195312 5.382812 0.15625 4.625 0.15625 Z M 4.625 -1.265625 C 5.09375 -1.265625 5.507812 -1.378906 5.875 -1.609375 C 6.25 -1.847656 6.539062 -2.171875 6.75 -2.578125 C 6.957031 -2.984375 7.054688 -3.4375 7.046875 -3.9375 C 7.054688 -4.457031 6.957031 -4.921875 6.75 -5.328125 C 6.539062 -5.734375 6.25 -6.050781 5.875 -6.28125 C 5.507812 -6.507812 5.09375 -6.625 4.625 -6.625 C 4.15625 -6.625 3.734375 -6.503906 3.359375 -6.265625 C 2.984375 -6.035156 2.6875 -5.71875 2.46875 -5.3125 C 2.257812 -4.90625 2.160156 -4.445312 2.171875 -3.9375 C 2.160156 -3.4375 2.257812 -2.984375 2.46875 -2.578125 C 2.6875 -2.171875 2.984375 -1.847656 3.359375 -1.609375 C 3.734375 -1.378906 4.15625 -1.265625 4.625 -1.265625 Z M 4.625 -1.265625 "/></g></g></g><g fill="#000000" fill-opacity="1"><g transform="translate(111.536668, 325.275096)"><g><path d="M 1.078125 0 L 1.078125 -7.875 L 2.640625 -7.875 L 2.640625 -5.40625 L 2.484375 -6 C 2.597656 -6.375 2.785156 -6.71875 3.046875 -7.03125 C 3.316406 -7.34375 3.625 -7.585938 3.96875 -7.765625 C 4.3125 -7.953125 4.671875 -8.046875 5.046875 -8.046875 C 5.210938 -8.046875 5.375 -8.03125 5.53125 -8 C 5.6875 -7.96875 5.804688 -7.929688 5.890625 -7.890625 L 5.484375 -6.203125 C 5.367188 -6.253906 5.238281 -6.296875 5.09375 -6.328125 C 4.945312 -6.367188 4.804688 -6.390625 4.671875 -6.390625 C 4.398438 -6.390625 4.140625 -6.335938 3.890625 -6.234375 C 3.648438 -6.128906 3.4375 -5.984375 3.25 -5.796875 C 3.0625 -5.609375 2.910156 -5.390625 2.796875 -5.140625 C 2.691406 -4.898438 2.640625 -4.632812 2.640625 -4.34375 L 2.640625 0 Z M 1.078125 0 "/></g></g></g><g fill="#000000" fill-opacity="1"><g transform="translate(117.581666, 325.275096)"><g><path d="M 1.046875 0 L 1.046875 -7.875 L 2.609375 -7.875 L 2.609375 -6.1875 L 2.328125 -6.015625 C 2.398438 -6.273438 2.523438 -6.523438 2.703125 -6.765625 C 2.878906 -7.003906 3.09375 -7.21875 3.34375 -7.40625 C 3.601562 -7.59375 3.878906 -7.738281 4.171875 -7.84375 C 4.472656 -7.957031 4.773438 -8.015625 5.078125 -8.015625 C 5.535156 -8.015625 5.929688 -7.9375 6.265625 -7.78125 C 6.609375 -7.632812 6.890625 -7.410156 7.109375 -7.109375 C 7.328125 -6.804688 7.488281 -6.429688 7.59375 -5.984375 L 7.34375 -6.046875 L 7.453125 -6.296875 C 7.566406 -6.523438 7.71875 -6.742188 7.90625 -6.953125 C 8.101562 -7.160156 8.328125 -7.34375 8.578125 -7.5 C 8.828125 -7.65625 9.09375 -7.78125 9.375 -7.875 C 9.65625 -7.96875 9.929688 -8.015625 10.203125 -8.015625 C 10.785156 -8.015625 11.269531 -7.894531 11.65625 -7.65625 C 12.039062 -7.414062 12.332031 -7.046875 12.53125 -6.546875 C 12.726562 -6.054688 12.828125 -5.445312 12.828125 -4.71875 L 12.828125 0 L 11.265625 0 L 11.265625 -4.640625 C 11.265625 -5.304688 11.132812 -5.796875 10.875 -6.109375 C 10.625 -6.421875 10.226562 -6.578125 9.6875 -6.578125 C 9.40625 -6.578125 9.140625 -6.53125 8.890625 -6.4375 C 8.648438 -6.34375 8.441406 -6.210938 8.265625 -6.046875 C 8.085938 -5.878906 7.945312 -5.679688 7.84375 -5.453125 C 7.738281 -5.222656 7.6875 -4.972656 7.6875 -4.703125 L 7.6875 0 L 6.140625 0 L 6.140625 -4.671875 C 6.140625 -5.285156 6.003906 -5.753906 5.734375 -6.078125 C 5.472656 -6.410156 5.09375 -6.578125 4.59375 -6.578125 C 4.3125 -6.578125 4.050781 -6.53125 3.8125 -6.4375 C 3.570312 -6.34375 3.359375 -6.210938 3.171875 -6.046875 C 2.992188 -5.890625 2.851562 -5.695312 2.75 -5.46875 C 2.65625 -5.238281 2.609375 -4.992188 2.609375 -4.734375 L 2.609375 0 Z M 1.046875 0 "/></g></g></g><g fill="#000000" fill-opacity="1"><g transform="translate(131.396653, 325.275096)"><g><path d="M 5.75 0 L 5.75 -5.125 C 5.75 -5.570312 5.585938 -5.929688 5.265625 -6.203125 C 4.953125 -6.472656 4.554688 -6.609375 4.078125 -6.609375 C 3.640625 -6.609375 3.242188 -6.519531 2.890625 -6.34375 C 2.535156 -6.164062 2.210938 -5.890625 1.921875 -5.515625 L 0.921875 -6.53125 C 1.390625 -7.039062 1.894531 -7.421875 2.4375 -7.671875 C 2.976562 -7.921875 3.566406 -8.046875 4.203125 -8.046875 C 4.796875 -8.046875 5.3125 -7.941406 5.75 -7.734375 C 6.195312 -7.535156 6.539062 -7.242188 6.78125 -6.859375 C 7.019531 -6.472656 7.140625 -6.003906 7.140625 -5.453125 L 7.140625 0 Z M 3.390625 0.15625 C 2.878906 0.15625 2.421875 0.0546875 2.015625 -0.140625 C 1.617188 -0.347656 1.300781 -0.628906 1.0625 -0.984375 C 0.832031 -1.335938 0.71875 -1.753906 0.71875 -2.234375 C 0.71875 -2.648438 0.789062 -3.019531 0.9375 -3.34375 C 1.09375 -3.664062 1.316406 -3.929688 1.609375 -4.140625 C 1.910156 -4.347656 2.28125 -4.503906 2.71875 -4.609375 C 3.164062 -4.722656 3.679688 -4.78125 4.265625 -4.78125 L 6.453125 -4.78125 L 6.3125 -3.5625 L 4.0625 -3.5625 C 3.757812 -3.5625 3.488281 -3.53125 3.25 -3.46875 C 3.019531 -3.414062 2.820312 -3.332031 2.65625 -3.21875 C 2.5 -3.101562 2.378906 -2.96875 2.296875 -2.8125 C 2.210938 -2.65625 2.171875 -2.472656 2.171875 -2.265625 C 2.171875 -2.046875 2.222656 -1.851562 2.328125 -1.6875 C 2.441406 -1.519531 2.59375 -1.390625 2.78125 -1.296875 C 2.976562 -1.210938 3.203125 -1.171875 3.453125 -1.171875 C 3.804688 -1.171875 4.144531 -1.234375 4.46875 -1.359375 C 4.800781 -1.484375 5.09375 -1.65625 5.34375 -1.875 C 5.601562 -2.09375 5.800781 -2.335938 5.9375 -2.609375 L 6.296875 -1.609375 C 6.085938 -1.253906 5.828125 -0.945312 5.515625 -0.6875 C 5.210938 -0.425781 4.878906 -0.21875 4.515625 -0.0625 C 4.148438 0.0820312 3.773438 0.15625 3.390625 0.15625 Z M 3.390625 0.15625 "/></g></g></g><g fill="#000000" fill-opacity="1"><g transform="translate(139.406647, 325.275096)"><g/></g></g><g fill="#000000" fill-opacity="1"><g transform="translate(143.606639, 325.275096)"><g><path d="M 4.359375 0.15625 C 3.640625 0.15625 3 -0.0195312 2.4375 -0.375 C 1.875 -0.738281 1.425781 -1.226562 1.09375 -1.84375 C 0.757812 -2.457031 0.59375 -3.15625 0.59375 -3.9375 C 0.59375 -4.726562 0.753906 -5.429688 1.078125 -6.046875 C 1.410156 -6.660156 1.851562 -7.144531 2.40625 -7.5 C 2.96875 -7.863281 3.601562 -8.046875 4.3125 -8.046875 C 4.707031 -8.046875 5.085938 -7.984375 5.453125 -7.859375 C 5.816406 -7.734375 6.144531 -7.5625 6.4375 -7.34375 C 6.726562 -7.125 6.953125 -6.882812 7.109375 -6.625 C 7.273438 -6.375 7.359375 -6.117188 7.359375 -5.859375 L 6.921875 -5.828125 L 6.921875 -11.09375 L 8.453125 -11.09375 L 8.453125 0 L 6.921875 0 L 6.921875 -1.875 L 7.21875 -1.875 C 7.21875 -1.632812 7.132812 -1.394531 6.96875 -1.15625 C 6.8125 -0.925781 6.597656 -0.707031 6.328125 -0.5 C 6.066406 -0.300781 5.765625 -0.140625 5.421875 -0.015625 C 5.078125 0.0976562 4.722656 0.15625 4.359375 0.15625 Z M 4.578125 -1.1875 C 5.046875 -1.1875 5.457031 -1.304688 5.8125 -1.546875 C 6.175781 -1.785156 6.457031 -2.113281 6.65625 -2.53125 C 6.863281 -2.945312 6.96875 -3.414062 6.96875 -3.9375 C 6.96875 -4.46875 6.863281 -4.941406 6.65625 -5.359375 C 6.457031 -5.773438 6.175781 -6.101562 5.8125 -6.34375 C 5.457031 -6.582031 5.046875 -6.703125 4.578125 -6.703125 C 4.109375 -6.703125 3.691406 -6.582031 3.328125 -6.34375 C 2.972656 -6.101562 2.691406 -5.773438 2.484375 -5.359375 C 2.273438 -4.941406 2.171875 -4.46875 2.171875 -3.9375 C 2.171875 -3.414062 2.273438 -2.945312 2.484375 -2.53125 C 2.691406 -2.113281 2.972656 -1.785156 3.328125 -1.546875 C 3.691406 -1.304688 4.109375 -1.1875 4.578125 -1.1875 Z M 4.578125 -1.1875 "/></g></g></g><g fill="#000000" fill-opacity="1"><g transform="translate(153.116633, 325.275096)"><g><path d="M 4.75 0.15625 C 3.945312 0.15625 3.234375 -0.015625 2.609375 -0.359375 C 1.984375 -0.710938 1.488281 -1.1875 1.125 -1.78125 C 0.769531 -2.382812 0.59375 -3.078125 0.59375 -3.859375 C 0.59375 -4.472656 0.691406 -5.035156 0.890625 -5.546875 C 1.097656 -6.054688 1.378906 -6.5 1.734375 -6.875 C 2.085938 -7.25 2.507812 -7.539062 3 -7.75 C 3.5 -7.957031 4.039062 -8.0625 4.625 -8.0625 C 5.132812 -8.0625 5.609375 -7.960938 6.046875 -7.765625 C 6.484375 -7.566406 6.863281 -7.296875 7.1875 -6.953125 C 7.519531 -6.617188 7.769531 -6.21875 7.9375 -5.75 C 8.113281 -5.289062 8.195312 -4.785156 8.1875 -4.234375 L 8.171875 -3.5625 L 1.734375 -3.5625 L 1.390625 -4.796875 L 6.84375 -4.796875 L 6.609375 -4.546875 L 6.609375 -4.90625 C 6.578125 -5.238281 6.46875 -5.535156 6.28125 -5.796875 C 6.09375 -6.054688 5.851562 -6.257812 5.5625 -6.40625 C 5.269531 -6.550781 4.957031 -6.625 4.625 -6.625 C 4.082031 -6.625 3.625 -6.519531 3.25 -6.3125 C 2.882812 -6.113281 2.601562 -5.816406 2.40625 -5.421875 C 2.21875 -5.023438 2.125 -4.535156 2.125 -3.953125 C 2.125 -3.410156 2.238281 -2.9375 2.46875 -2.53125 C 2.695312 -2.125 3.019531 -1.8125 3.4375 -1.59375 C 3.863281 -1.375 4.351562 -1.265625 4.90625 -1.265625 C 5.289062 -1.265625 5.648438 -1.328125 5.984375 -1.453125 C 6.328125 -1.585938 6.691406 -1.820312 7.078125 -2.15625 L 7.859375 -1.0625 C 7.617188 -0.820312 7.328125 -0.613281 6.984375 -0.4375 C 6.640625 -0.257812 6.273438 -0.113281 5.890625 0 C 5.503906 0.101562 5.125 0.15625 4.75 0.15625 Z M 4.75 0.15625 "/></g></g></g><g fill="#000000" fill-opacity="1"><g transform="translate(161.906622, 325.275096)"><g/></g></g><g fill="#000000" fill-opacity="1"><g transform="translate(166.106615, 325.275096)"><g><path d="M 6.171875 0.15625 C 5.410156 0.15625 4.695312 0.0195312 4.03125 -0.25 C 3.375 -0.53125 2.796875 -0.914062 2.296875 -1.40625 C 1.796875 -1.894531 1.40625 -2.46875 1.125 -3.125 C 0.851562 -3.78125 0.71875 -4.488281 0.71875 -5.25 C 0.71875 -6 0.851562 -6.695312 1.125 -7.34375 C 1.40625 -8 1.789062 -8.566406 2.28125 -9.046875 C 2.78125 -9.535156 3.359375 -9.914062 4.015625 -10.1875 C 4.679688 -10.457031 5.394531 -10.59375 6.15625 -10.59375 C 6.675781 -10.59375 7.1875 -10.515625 7.6875 -10.359375 C 8.195312 -10.210938 8.65625 -10.003906 9.0625 -9.734375 C 9.476562 -9.460938 9.816406 -9.15625 10.078125 -8.8125 L 9.03125 -7.703125 C 8.582031 -8.140625 8.113281 -8.46875 7.625 -8.6875 C 7.144531 -8.90625 6.65625 -9.015625 6.15625 -9.015625 C 5.613281 -9.015625 5.113281 -8.914062 4.65625 -8.71875 C 4.195312 -8.53125 3.796875 -8.265625 3.453125 -7.921875 C 3.109375 -7.585938 2.84375 -7.191406 2.65625 -6.734375 C 2.46875 -6.285156 2.375 -5.789062 2.375 -5.25 C 2.375 -4.726562 2.472656 -4.234375 2.671875 -3.765625 C 2.867188 -3.304688 3.144531 -2.898438 3.5 -2.546875 C 3.851562 -2.203125 4.265625 -1.925781 4.734375 -1.71875 C 5.203125 -1.519531 5.691406 -1.421875 6.203125 -1.421875 C 6.597656 -1.421875 6.96875 -1.476562 7.3125 -1.59375 C 7.664062 -1.707031 7.976562 -1.867188 8.25 -2.078125 C 8.519531 -2.296875 8.726562 -2.539062 8.875 -2.8125 C 9.03125 -3.082031 9.109375 -3.375 9.109375 -3.6875 L 9.109375 -3.984375 L 9.328125 -3.78125 L 6.125 -3.78125 L 6.125 -5.390625 L 10.765625 -5.390625 C 10.785156 -5.273438 10.800781 -5.164062 10.8125 -5.0625 C 10.820312 -4.957031 10.828125 -4.859375 10.828125 -4.765625 C 10.835938 -4.671875 10.84375 -4.578125 10.84375 -4.484375 C 10.84375 -3.796875 10.722656 -3.164062 10.484375 -2.59375 C 10.242188 -2.03125 9.910156 -1.546875 9.484375 -1.140625 C 9.054688 -0.734375 8.5625 -0.414062 8 -0.1875 C 7.4375 0.0390625 6.828125 0.15625 6.171875 0.15625 Z M 6.171875 0.15625 "/></g></g></g><g fill="#000000" fill-opacity="1"><g transform="translate(177.596608, 325.275096)"><g><path d="M 4.75 0.15625 C 3.945312 0.15625 3.234375 -0.015625 2.609375 -0.359375 C 1.984375 -0.710938 1.488281 -1.1875 1.125 -1.78125 C 0.769531 -2.382812 0.59375 -3.078125 0.59375 -3.859375 C 0.59375 -4.472656 0.691406 -5.035156 0.890625 -5.546875 C 1.097656 -6.054688 1.378906 -6.5 1.734375 -6.875 C 2.085938 -7.25 2.507812 -7.539062 3 -7.75 C 3.5 -7.957031 4.039062 -8.0625 4.625 -8.0625 C 5.132812 -8.0625 5.609375 -7.960938 6.046875 -7.765625 C 6.484375 -7.566406 6.863281 -7.296875 7.1875 -6.953125 C 7.519531 -6.617188 7.769531 -6.21875 7.9375 -5.75 C 8.113281 -5.289062 8.195312 -4.785156 8.1875 -4.234375 L 8.171875 -3.5625 L 1.734375 -3.5625 L 1.390625 -4.796875 L 6.84375 -4.796875 L 6.609375 -4.546875 L 6.609375 -4.90625 C 6.578125 -5.238281 6.46875 -5.535156 6.28125 -5.796875 C 6.09375 -6.054688 5.851562 -6.257812 5.5625 -6.40625 C 5.269531 -6.550781 4.957031 -6.625 4.625 -6.625 C 4.082031 -6.625 3.625 -6.519531 3.25 -6.3125 C 2.882812 -6.113281 2.601562 -5.816406 2.40625 -5.421875 C 2.21875 -5.023438 2.125 -4.535156 2.125 -3.953125 C 2.125 -3.410156 2.238281 -2.9375 2.46875 -2.53125 C 2.695312 -2.125 3.019531 -1.8125 3.4375 -1.59375 C 3.863281 -1.375 4.351562 -1.265625 4.90625 -1.265625 C 5.289062 -1.265625 5.648438 -1.328125 5.984375 -1.453125 C 6.328125 -1.585938 6.691406 -1.820312 7.078125 -2.15625 L 7.859375 -1.0625 C 7.617188 -0.820312 7.328125 -0.613281 6.984375 -0.4375 C 6.640625 -0.257812 6.273438 -0.113281 5.890625 0 C 5.503906 0.101562 5.125 0.15625 4.75 0.15625 Z M 4.75 0.15625 "/></g></g></g><g fill="#000000" fill-opacity="1"><g transform="translate(186.386597, 325.275096)"><g><path d="M 3.703125 0.15625 C 3.046875 0.15625 2.453125 0.0390625 1.921875 -0.1875 C 1.390625 -0.425781 0.945312 -0.769531 0.59375 -1.21875 L 1.65625 -2.109375 C 1.945312 -1.765625 2.269531 -1.515625 2.625 -1.359375 C 2.988281 -1.203125 3.394531 -1.125 3.84375 -1.125 C 4.019531 -1.125 4.1875 -1.144531 4.34375 -1.1875 C 4.5 -1.238281 4.632812 -1.304688 4.75 -1.390625 C 4.863281 -1.484375 4.945312 -1.59375 5 -1.71875 C 5.0625 -1.84375 5.09375 -1.976562 5.09375 -2.125 C 5.09375 -2.382812 5 -2.597656 4.8125 -2.765625 C 4.71875 -2.828125 4.5625 -2.898438 4.34375 -2.984375 C 4.125 -3.078125 3.847656 -3.164062 3.515625 -3.25 C 2.929688 -3.40625 2.453125 -3.578125 2.078125 -3.765625 C 1.710938 -3.953125 1.429688 -4.164062 1.234375 -4.40625 C 1.078125 -4.59375 0.960938 -4.800781 0.890625 -5.03125 C 0.828125 -5.257812 0.796875 -5.507812 0.796875 -5.78125 C 0.796875 -6.21875 0.921875 -6.601562 1.171875 -6.9375 C 1.421875 -7.28125 1.753906 -7.550781 2.171875 -7.75 C 2.597656 -7.945312 3.078125 -8.046875 3.609375 -8.046875 C 3.984375 -8.046875 4.351562 -7.992188 4.71875 -7.890625 C 5.082031 -7.785156 5.414062 -7.640625 5.71875 -7.453125 C 6.03125 -7.265625 6.296875 -7.039062 6.515625 -6.78125 L 5.625 -5.8125 C 5.4375 -6 5.226562 -6.164062 5 -6.3125 C 4.78125 -6.457031 4.550781 -6.566406 4.3125 -6.640625 C 4.082031 -6.722656 3.875 -6.765625 3.6875 -6.765625 C 3.476562 -6.765625 3.285156 -6.742188 3.109375 -6.703125 C 2.941406 -6.660156 2.800781 -6.597656 2.6875 -6.515625 C 2.570312 -6.441406 2.484375 -6.34375 2.421875 -6.21875 C 2.367188 -6.101562 2.34375 -5.96875 2.34375 -5.8125 C 2.351562 -5.6875 2.382812 -5.566406 2.4375 -5.453125 C 2.488281 -5.335938 2.566406 -5.238281 2.671875 -5.15625 C 2.773438 -5.082031 2.9375 -5 3.15625 -4.90625 C 3.382812 -4.8125 3.664062 -4.726562 4 -4.65625 C 4.5 -4.519531 4.910156 -4.375 5.234375 -4.21875 C 5.566406 -4.0625 5.828125 -3.882812 6.015625 -3.6875 C 6.210938 -3.5 6.351562 -3.28125 6.4375 -3.03125 C 6.519531 -2.78125 6.5625 -2.5 6.5625 -2.1875 C 6.5625 -1.738281 6.429688 -1.335938 6.171875 -0.984375 C 5.921875 -0.628906 5.578125 -0.347656 5.140625 -0.140625 C 4.710938 0.0546875 4.234375 0.15625 3.703125 0.15625 Z M 3.703125 0.15625 "/></g></g></g><g fill="#000000" fill-opacity="1"><g transform="translate(193.571587, 325.275096)"><g><path d="M 2.0625 0 L 2.0625 -9.890625 L 3.59375 -9.890625 L 3.59375 0 Z M 0.421875 -6.375 L 0.421875 -7.875 L 5.4375 -7.875 L 5.4375 -6.375 Z M 0.421875 -6.375 "/></g></g></g><g fill="#000000" fill-opacity="1"><g transform="translate(199.256576, 325.275096)"><g><path d="M 5.75 0 L 5.75 -5.125 C 5.75 -5.570312 5.585938 -5.929688 5.265625 -6.203125 C 4.953125 -6.472656 4.554688 -6.609375 4.078125 -6.609375 C 3.640625 -6.609375 3.242188 -6.519531 2.890625 -6.34375 C 2.535156 -6.164062 2.210938 -5.890625 1.921875 -5.515625 L 0.921875 -6.53125 C 1.390625 -7.039062 1.894531 -7.421875 2.4375 -7.671875 C 2.976562 -7.921875 3.566406 -8.046875 4.203125 -8.046875 C 4.796875 -8.046875 5.3125 -7.941406 5.75 -7.734375 C 6.195312 -7.535156 6.539062 -7.242188 6.78125 -6.859375 C 7.019531 -6.472656 7.140625 -6.003906 7.140625 -5.453125 L 7.140625 0 Z M 3.390625 0.15625 C 2.878906 0.15625 2.421875 0.0546875 2.015625 -0.140625 C 1.617188 -0.347656 1.300781 -0.628906 1.0625 -0.984375 C 0.832031 -1.335938 0.71875 -1.753906 0.71875 -2.234375 C 0.71875 -2.648438 0.789062 -3.019531 0.9375 -3.34375 C 1.09375 -3.664062 1.316406 -3.929688 1.609375 -4.140625 C 1.910156 -4.347656 2.28125 -4.503906 2.71875 -4.609375 C 3.164062 -4.722656 3.679688 -4.78125 4.265625 -4.78125 L 6.453125 -4.78125 L 6.3125 -3.5625 L 4.0625 -3.5625 C 3.757812 -3.5625 3.488281 -3.53125 3.25 -3.46875 C 3.019531 -3.414062 2.820312 -3.332031 2.65625 -3.21875 C 2.5 -3.101562 2.378906 -2.96875 2.296875 -2.8125 C 2.210938 -2.65625 2.171875 -2.472656 2.171875 -2.265625 C 2.171875 -2.046875 2.222656 -1.851562 2.328125 -1.6875 C 2.441406 -1.519531 2.59375 -1.390625 2.78125 -1.296875 C 2.976562 -1.210938 3.203125 -1.171875 3.453125 -1.171875 C 3.804688 -1.171875 4.144531 -1.234375 4.46875 -1.359375 C 4.800781 -1.484375 5.09375 -1.65625 5.34375 -1.875 C 5.601562 -2.09375 5.800781 -2.335938 5.9375 -2.609375 L 6.296875 -1.609375 C 6.085938 -1.253906 5.828125 -0.945312 5.515625 -0.6875 C 5.210938 -0.425781 4.878906 -0.21875 4.515625 -0.0625 C 4.148438 0.0820312 3.773438 0.15625 3.390625 0.15625 Z M 4.765625 -9.21875 C 4.566406 -9.21875 4.398438 -9.257812 4.265625 -9.34375 C 4.128906 -9.425781 3.984375 -9.523438 3.828125 -9.640625 C 3.640625 -9.816406 3.5 -9.9375 3.40625 -10 C 3.3125 -10.0625 3.222656 -10.09375 3.140625 -10.09375 C 3.015625 -10.09375 2.898438 -10.019531 2.796875 -9.875 C 2.703125 -9.726562 2.632812 -9.507812 2.59375 -9.21875 L 1.5625 -9.375 C 1.582031 -9.863281 1.738281 -10.285156 2.03125 -10.640625 C 2.332031 -11.003906 2.726562 -11.1875 3.21875 -11.1875 C 3.414062 -11.1875 3.582031 -11.144531 3.71875 -11.0625 C 3.851562 -10.988281 4 -10.890625 4.15625 -10.765625 C 4.351562 -10.609375 4.492188 -10.492188 4.578125 -10.421875 C 4.671875 -10.347656 4.757812 -10.3125 4.84375 -10.3125 C 4.976562 -10.3125 5.09375 -10.382812 5.1875 -10.53125 C 5.28125 -10.6875 5.347656 -10.90625 5.390625 -11.1875 L 6.421875 -11.046875 C 6.410156 -10.722656 6.332031 -10.421875 6.1875 -10.140625 C 6.050781 -9.859375 5.863281 -9.632812 5.625 -9.46875 C 5.382812 -9.300781 5.097656 -9.21875 4.765625 -9.21875 Z M 4.765625 -9.21875 "/></g></g></g><g fill="#000000" fill-opacity="1"><g transform="translate(207.26657, 325.275096)"><g><path d="M 4.625 0.15625 C 3.851562 0.15625 3.164062 -0.0195312 2.5625 -0.375 C 1.957031 -0.738281 1.476562 -1.226562 1.125 -1.84375 C 0.769531 -2.457031 0.59375 -3.15625 0.59375 -3.9375 C 0.59375 -4.726562 0.769531 -5.429688 1.125 -6.046875 C 1.476562 -6.660156 1.957031 -7.144531 2.5625 -7.5 C 3.164062 -7.863281 3.851562 -8.046875 4.625 -8.046875 C 5.382812 -8.046875 6.066406 -7.863281 6.671875 -7.5 C 7.273438 -7.144531 7.75 -6.660156 8.09375 -6.046875 C 8.445312 -5.429688 8.625 -4.726562 8.625 -3.9375 C 8.625 -3.15625 8.445312 -2.457031 8.09375 -1.84375 C 7.75 -1.226562 7.273438 -0.738281 6.671875 -0.375 C 6.066406 -0.0195312 5.382812 0.15625 4.625 0.15625 Z M 4.625 -1.265625 C 5.09375 -1.265625 5.507812 -1.378906 5.875 -1.609375 C 6.25 -1.847656 6.539062 -2.171875 6.75 -2.578125 C 6.957031 -2.984375 7.054688 -3.4375 7.046875 -3.9375 C 7.054688 -4.457031 6.957031 -4.921875 6.75 -5.328125 C 6.539062 -5.734375 6.25 -6.050781 5.875 -6.28125 C 5.507812 -6.507812 5.09375 -6.625 4.625 -6.625 C 4.15625 -6.625 3.734375 -6.503906 3.359375 -6.265625 C 2.984375 -6.035156 2.6875 -5.71875 2.46875 -5.3125 C 2.257812 -4.90625 2.160156 -4.445312 2.171875 -3.9375 C 2.160156 -3.4375 2.257812 -2.984375 2.46875 -2.578125 C 2.6875 -2.171875 2.984375 -1.847656 3.359375 -1.609375 C 3.734375 -1.378906 4.15625 -1.265625 4.625 -1.265625 Z M 4.625 -1.265625 "/></g></g></g><g fill="#000000" fill-opacity="1"><g transform="translate(216.491561, 325.275096)"><g/></g></g><g fill="#000000" fill-opacity="1"><g transform="translate(220.691553, 325.275096)"><g><path d="M 4.359375 0.15625 C 3.640625 0.15625 3 -0.0195312 2.4375 -0.375 C 1.875 -0.738281 1.425781 -1.226562 1.09375 -1.84375 C 0.757812 -2.457031 0.59375 -3.15625 0.59375 -3.9375 C 0.59375 -4.726562 0.753906 -5.429688 1.078125 -6.046875 C 1.410156 -6.660156 1.851562 -7.144531 2.40625 -7.5 C 2.96875 -7.863281 3.601562 -8.046875 4.3125 -8.046875 C 4.707031 -8.046875 5.085938 -7.984375 5.453125 -7.859375 C 5.816406 -7.734375 6.144531 -7.5625 6.4375 -7.34375 C 6.726562 -7.125 6.953125 -6.882812 7.109375 -6.625 C 7.273438 -6.375 7.359375 -6.117188 7.359375 -5.859375 L 6.921875 -5.828125 L 6.921875 -11.09375 L 8.453125 -11.09375 L 8.453125 0 L 6.921875 0 L 6.921875 -1.875 L 7.21875 -1.875 C 7.21875 -1.632812 7.132812 -1.394531 6.96875 -1.15625 C 6.8125 -0.925781 6.597656 -0.707031 6.328125 -0.5 C 6.066406 -0.300781 5.765625 -0.140625 5.421875 -0.015625 C 5.078125 0.0976562 4.722656 0.15625 4.359375 0.15625 Z M 4.578125 -1.1875 C 5.046875 -1.1875 5.457031 -1.304688 5.8125 -1.546875 C 6.175781 -1.785156 6.457031 -2.113281 6.65625 -2.53125 C 6.863281 -2.945312 6.96875 -3.414062 6.96875 -3.9375 C 6.96875 -4.46875 6.863281 -4.941406 6.65625 -5.359375 C 6.457031 -5.773438 6.175781 -6.101562 5.8125 -6.34375 C 5.457031 -6.582031 5.046875 -6.703125 4.578125 -6.703125 C 4.109375 -6.703125 3.691406 -6.582031 3.328125 -6.34375 C 2.972656 -6.101562 2.691406 -5.773438 2.484375 -5.359375 C 2.273438 -4.941406 2.171875 -4.46875 2.171875 -3.9375 C 2.171875 -3.414062 2.273438 -2.945312 2.484375 -2.53125 C 2.691406 -2.113281 2.972656 -1.785156 3.328125 -1.546875 C 3.691406 -1.304688 4.109375 -1.1875 4.578125 -1.1875 Z M 4.578125 -1.1875 "/></g></g></g><g fill="#000000" fill-opacity="1"><g transform="translate(230.201547, 325.275096)"><g><path d="M 4.75 0.15625 C 3.945312 0.15625 3.234375 -0.015625 2.609375 -0.359375 C 1.984375 -0.710938 1.488281 -1.1875 1.125 -1.78125 C 0.769531 -2.382812 0.59375 -3.078125 0.59375 -3.859375 C 0.59375 -4.472656 0.691406 -5.035156 0.890625 -5.546875 C 1.097656 -6.054688 1.378906 -6.5 1.734375 -6.875 C 2.085938 -7.25 2.507812 -7.539062 3 -7.75 C 3.5 -7.957031 4.039062 -8.0625 4.625 -8.0625 C 5.132812 -8.0625 5.609375 -7.960938 6.046875 -7.765625 C 6.484375 -7.566406 6.863281 -7.296875 7.1875 -6.953125 C 7.519531 -6.617188 7.769531 -6.21875 7.9375 -5.75 C 8.113281 -5.289062 8.195312 -4.785156 8.1875 -4.234375 L 8.171875 -3.5625 L 1.734375 -3.5625 L 1.390625 -4.796875 L 6.84375 -4.796875 L 6.609375 -4.546875 L 6.609375 -4.90625 C 6.578125 -5.238281 6.46875 -5.535156 6.28125 -5.796875 C 6.09375 -6.054688 5.851562 -6.257812 5.5625 -6.40625 C 5.269531 -6.550781 4.957031 -6.625 4.625 -6.625 C 4.082031 -6.625 3.625 -6.519531 3.25 -6.3125 C 2.882812 -6.113281 2.601562 -5.816406 2.40625 -5.421875 C 2.21875 -5.023438 2.125 -4.535156 2.125 -3.953125 C 2.125 -3.410156 2.238281 -2.9375 2.46875 -2.53125 C 2.695312 -2.125 3.019531 -1.8125 3.4375 -1.59375 C 3.863281 -1.375 4.351562 -1.265625 4.90625 -1.265625 C 5.289062 -1.265625 5.648438 -1.328125 5.984375 -1.453125 C 6.328125 -1.585938 6.691406 -1.820312 7.078125 -2.15625 L 7.859375 -1.0625 C 7.617188 -0.820312 7.328125 -0.613281 6.984375 -0.4375 C 6.640625 -0.257812 6.273438 -0.113281 5.890625 0 C 5.503906 0.101562 5.125 0.15625 4.75 0.15625 Z M 4.75 0.15625 "/></g></g></g><g fill="#000000" fill-opacity="1"><g transform="translate(238.991536, 325.275096)"><g/></g></g><g fill="#000000" fill-opacity="1"><g transform="translate(243.191529, 325.275096)"><g><path d="M 5.734375 0.15625 C 5.003906 0.15625 4.332031 0.0234375 3.71875 -0.234375 C 3.113281 -0.492188 2.582031 -0.863281 2.125 -1.34375 C 1.675781 -1.832031 1.328125 -2.40625 1.078125 -3.0625 C 0.835938 -3.726562 0.71875 -4.457031 0.71875 -5.25 C 0.71875 -6 0.847656 -6.695312 1.109375 -7.34375 C 1.378906 -7.988281 1.75 -8.554688 2.21875 -9.046875 C 2.6875 -9.535156 3.226562 -9.914062 3.84375 -10.1875 C 4.46875 -10.457031 5.140625 -10.59375 5.859375 -10.59375 C 6.367188 -10.59375 6.863281 -10.515625 7.34375 -10.359375 C 7.832031 -10.203125 8.273438 -9.984375 8.671875 -9.703125 C 9.066406 -9.429688 9.390625 -9.125 9.640625 -8.78125 L 8.5625 -7.65625 C 8.132812 -8.09375 7.691406 -8.421875 7.234375 -8.640625 C 6.785156 -8.859375 6.328125 -8.96875 5.859375 -8.96875 C 5.367188 -8.96875 4.910156 -8.875 4.484375 -8.6875 C 4.066406 -8.507812 3.695312 -8.253906 3.375 -7.921875 C 3.0625 -7.585938 2.816406 -7.191406 2.640625 -6.734375 C 2.460938 -6.285156 2.375 -5.789062 2.375 -5.25 C 2.375 -4.675781 2.457031 -4.15625 2.625 -3.6875 C 2.800781 -3.226562 3.050781 -2.832031 3.375 -2.5 C 3.695312 -2.175781 4.078125 -1.925781 4.515625 -1.75 C 4.960938 -1.570312 5.457031 -1.484375 6 -1.484375 C 6.332031 -1.484375 6.65625 -1.523438 6.96875 -1.609375 C 7.289062 -1.703125 7.59375 -1.832031 7.875 -2 C 8.15625 -2.175781 8.410156 -2.378906 8.640625 -2.609375 L 9.453125 -1.296875 C 9.222656 -1.023438 8.910156 -0.773438 8.515625 -0.546875 C 8.117188 -0.328125 7.675781 -0.15625 7.1875 -0.03125 C 6.707031 0.09375 6.222656 0.15625 5.734375 0.15625 Z M 5.734375 0.15625 "/></g></g></g><g fill="#000000" fill-opacity="1"><g transform="translate(253.376518, 325.275096)"><g><path d="M 4.625 0.15625 C 3.851562 0.15625 3.164062 -0.0195312 2.5625 -0.375 C 1.957031 -0.738281 1.476562 -1.226562 1.125 -1.84375 C 0.769531 -2.457031 0.59375 -3.15625 0.59375 -3.9375 C 0.59375 -4.726562 0.769531 -5.429688 1.125 -6.046875 C 1.476562 -6.660156 1.957031 -7.144531 2.5625 -7.5 C 3.164062 -7.863281 3.851562 -8.046875 4.625 -8.046875 C 5.382812 -8.046875 6.066406 -7.863281 6.671875 -7.5 C 7.273438 -7.144531 7.75 -6.660156 8.09375 -6.046875 C 8.445312 -5.429688 8.625 -4.726562 8.625 -3.9375 C 8.625 -3.15625 8.445312 -2.457031 8.09375 -1.84375 C 7.75 -1.226562 7.273438 -0.738281 6.671875 -0.375 C 6.066406 -0.0195312 5.382812 0.15625 4.625 0.15625 Z M 4.625 -1.265625 C 5.09375 -1.265625 5.507812 -1.378906 5.875 -1.609375 C 6.25 -1.847656 6.539062 -2.171875 6.75 -2.578125 C 6.957031 -2.984375 7.054688 -3.4375 7.046875 -3.9375 C 7.054688 -4.457031 6.957031 -4.921875 6.75 -5.328125 C 6.539062 -5.734375 6.25 -6.050781 5.875 -6.28125 C 5.507812 -6.507812 5.09375 -6.625 4.625 -6.625 C 4.15625 -6.625 3.734375 -6.503906 3.359375 -6.265625 C 2.984375 -6.035156 2.6875 -5.71875 2.46875 -5.3125 C 2.257812 -4.90625 2.160156 -4.445312 2.171875 -3.9375 C 2.160156 -3.4375 2.257812 -2.984375 2.46875 -2.578125 C 2.6875 -2.171875 2.984375 -1.847656 3.359375 -1.609375 C 3.734375 -1.378906 4.15625 -1.265625 4.625 -1.265625 Z M 4.625 -1.265625 "/></g></g></g><g fill="#000000" fill-opacity="1"><g transform="translate(262.60152, 325.275096)"><g><path d="M 1.078125 0 L 1.078125 -7.875 L 2.625 -7.875 L 2.625 -6.25 L 2.359375 -6.078125 C 2.453125 -6.421875 2.644531 -6.738281 2.9375 -7.03125 C 3.226562 -7.332031 3.570312 -7.578125 3.96875 -7.765625 C 4.375 -7.953125 4.785156 -8.046875 5.203125 -8.046875 C 5.804688 -8.046875 6.304688 -7.925781 6.703125 -7.6875 C 7.109375 -7.445312 7.410156 -7.085938 7.609375 -6.609375 C 7.804688 -6.128906 7.90625 -5.523438 7.90625 -4.796875 L 7.90625 0 L 6.359375 0 L 6.359375 -4.6875 C 6.359375 -5.144531 6.296875 -5.519531 6.171875 -5.8125 C 6.054688 -6.101562 5.875 -6.316406 5.625 -6.453125 C 5.375 -6.585938 5.0625 -6.644531 4.6875 -6.625 C 4.394531 -6.625 4.125 -6.578125 3.875 -6.484375 C 3.625 -6.390625 3.40625 -6.253906 3.21875 -6.078125 C 3.03125 -5.910156 2.882812 -5.710938 2.78125 -5.484375 C 2.675781 -5.265625 2.625 -5.023438 2.625 -4.765625 L 2.625 0 L 1.859375 0 C 1.734375 0 1.601562 0 1.46875 0 C 1.34375 0 1.210938 0 1.078125 0 Z M 1.078125 0 "/></g></g></g><g fill="#000000" fill-opacity="1"><g transform="translate(271.526492, 325.275096)"><g><path d="M 2.0625 0 L 2.0625 -9.890625 L 3.59375 -9.890625 L 3.59375 0 Z M 0.421875 -6.375 L 0.421875 -7.875 L 5.4375 -7.875 L 5.4375 -6.375 Z M 0.421875 -6.375 "/></g></g></g><g fill="#000000" fill-opacity="1"><g transform="translate(277.286486, 325.275096)"><g><path d="M 1.078125 0 L 1.078125 -7.875 L 2.640625 -7.875 L 2.640625 -5.40625 L 2.484375 -6 C 2.597656 -6.375 2.785156 -6.71875 3.046875 -7.03125 C 3.316406 -7.34375 3.625 -7.585938 3.96875 -7.765625 C 4.3125 -7.953125 4.671875 -8.046875 5.046875 -8.046875 C 5.210938 -8.046875 5.375 -8.03125 5.53125 -8 C 5.6875 -7.96875 5.804688 -7.929688 5.890625 -7.890625 L 5.484375 -6.203125 C 5.367188 -6.253906 5.238281 -6.296875 5.09375 -6.328125 C 4.945312 -6.367188 4.804688 -6.390625 4.671875 -6.390625 C 4.398438 -6.390625 4.140625 -6.335938 3.890625 -6.234375 C 3.648438 -6.128906 3.4375 -5.984375 3.25 -5.796875 C 3.0625 -5.609375 2.910156 -5.390625 2.796875 -5.140625 C 2.691406 -4.898438 2.640625 -4.632812 2.640625 -4.34375 L 2.640625 0 Z M 1.078125 0 "/></g></g></g><g fill="#000000" fill-opacity="1"><g transform="translate(283.001482, 325.275096)"><g><path d="M 5.75 0 L 5.75 -5.125 C 5.75 -5.570312 5.585938 -5.929688 5.265625 -6.203125 C 4.953125 -6.472656 4.554688 -6.609375 4.078125 -6.609375 C 3.640625 -6.609375 3.242188 -6.519531 2.890625 -6.34375 C 2.535156 -6.164062 2.210938 -5.890625 1.921875 -5.515625 L 0.921875 -6.53125 C 1.390625 -7.039062 1.894531 -7.421875 2.4375 -7.671875 C 2.976562 -7.921875 3.566406 -8.046875 4.203125 -8.046875 C 4.796875 -8.046875 5.3125 -7.941406 5.75 -7.734375 C 6.195312 -7.535156 6.539062 -7.242188 6.78125 -6.859375 C 7.019531 -6.472656 7.140625 -6.003906 7.140625 -5.453125 L 7.140625 0 Z M 3.390625 0.15625 C 2.878906 0.15625 2.421875 0.0546875 2.015625 -0.140625 C 1.617188 -0.347656 1.300781 -0.628906 1.0625 -0.984375 C 0.832031 -1.335938 0.71875 -1.753906 0.71875 -2.234375 C 0.71875 -2.648438 0.789062 -3.019531 0.9375 -3.34375 C 1.09375 -3.664062 1.316406 -3.929688 1.609375 -4.140625 C 1.910156 -4.347656 2.28125 -4.503906 2.71875 -4.609375 C 3.164062 -4.722656 3.679688 -4.78125 4.265625 -4.78125 L 6.453125 -4.78125 L 6.3125 -3.5625 L 4.0625 -3.5625 C 3.757812 -3.5625 3.488281 -3.53125 3.25 -3.46875 C 3.019531 -3.414062 2.820312 -3.332031 2.65625 -3.21875 C 2.5 -3.101562 2.378906 -2.96875 2.296875 -2.8125 C 2.210938 -2.65625 2.171875 -2.472656 2.171875 -2.265625 C 2.171875 -2.046875 2.222656 -1.851562 2.328125 -1.6875 C 2.441406 -1.519531 2.59375 -1.390625 2.78125 -1.296875 C 2.976562 -1.210938 3.203125 -1.171875 3.453125 -1.171875 C 3.804688 -1.171875 4.144531 -1.234375 4.46875 -1.359375 C 4.800781 -1.484375 5.09375 -1.65625 5.34375 -1.875 C 5.601562 -2.09375 5.800781 -2.335938 5.9375 -2.609375 L 6.296875 -1.609375 C 6.085938 -1.253906 5.828125 -0.945312 5.515625 -0.6875 C 5.210938 -0.425781 4.878906 -0.21875 4.515625 -0.0625 C 4.148438 0.0820312 3.773438 0.15625 3.390625 0.15625 Z M 3.390625 0.15625 "/></g></g></g><g fill="#000000" fill-opacity="1"><g transform="translate(291.011476, 325.275096)"><g><path d="M 2.0625 0 L 2.0625 -9.890625 L 3.59375 -9.890625 L 3.59375 0 Z M 0.421875 -6.375 L 0.421875 -7.875 L 5.4375 -7.875 L 5.4375 -6.375 Z M 0.421875 -6.375 "/></g></g></g><g fill="#000000" fill-opacity="1"><g transform="translate(296.696489, 325.275096)"><g><path d="M 4.625 0.15625 C 3.851562 0.15625 3.164062 -0.0195312 2.5625 -0.375 C 1.957031 -0.738281 1.476562 -1.226562 1.125 -1.84375 C 0.769531 -2.457031 0.59375 -3.15625 0.59375 -3.9375 C 0.59375 -4.726562 0.769531 -5.429688 1.125 -6.046875 C 1.476562 -6.660156 1.957031 -7.144531 2.5625 -7.5 C 3.164062 -7.863281 3.851562 -8.046875 4.625 -8.046875 C 5.382812 -8.046875 6.066406 -7.863281 6.671875 -7.5 C 7.273438 -7.144531 7.75 -6.660156 8.09375 -6.046875 C 8.445312 -5.429688 8.625 -4.726562 8.625 -3.9375 C 8.625 -3.15625 8.445312 -2.457031 8.09375 -1.84375 C 7.75 -1.226562 7.273438 -0.738281 6.671875 -0.375 C 6.066406 -0.0195312 5.382812 0.15625 4.625 0.15625 Z M 4.625 -1.265625 C 5.09375 -1.265625 5.507812 -1.378906 5.875 -1.609375 C 6.25 -1.847656 6.539062 -2.171875 6.75 -2.578125 C 6.957031 -2.984375 7.054688 -3.4375 7.046875 -3.9375 C 7.054688 -4.457031 6.957031 -4.921875 6.75 -5.328125 C 6.539062 -5.734375 6.25 -6.050781 5.875 -6.28125 C 5.507812 -6.507812 5.09375 -6.625 4.625 -6.625 C 4.15625 -6.625 3.734375 -6.503906 3.359375 -6.265625 C 2.984375 -6.035156 2.6875 -5.71875 2.46875 -5.3125 C 2.257812 -4.90625 2.160156 -4.445312 2.171875 -3.9375 C 2.160156 -3.4375 2.257812 -2.984375 2.46875 -2.578125 C 2.6875 -2.171875 2.984375 -1.847656 3.359375 -1.609375 C 3.734375 -1.378906 4.15625 -1.265625 4.625 -1.265625 Z M 4.625 -1.265625 "/></g></g></g><g fill="#000000" fill-opacity="1"><g transform="translate(305.921479, 325.275096)"><g><path d="M 3.703125 0.15625 C 3.046875 0.15625 2.453125 0.0390625 1.921875 -0.1875 C 1.390625 -0.425781 0.945312 -0.769531 0.59375 -1.21875 L 1.65625 -2.109375 C 1.945312 -1.765625 2.269531 -1.515625 2.625 -1.359375 C 2.988281 -1.203125 3.394531 -1.125 3.84375 -1.125 C 4.019531 -1.125 4.1875 -1.144531 4.34375 -1.1875 C 4.5 -1.238281 4.632812 -1.304688 4.75 -1.390625 C 4.863281 -1.484375 4.945312 -1.59375 5 -1.71875 C 5.0625 -1.84375 5.09375 -1.976562 5.09375 -2.125 C 5.09375 -2.382812 5 -2.597656 4.8125 -2.765625 C 4.71875 -2.828125 4.5625 -2.898438 4.34375 -2.984375 C 4.125 -3.078125 3.847656 -3.164062 3.515625 -3.25 C 2.929688 -3.40625 2.453125 -3.578125 2.078125 -3.765625 C 1.710938 -3.953125 1.429688 -4.164062 1.234375 -4.40625 C 1.078125 -4.59375 0.960938 -4.800781 0.890625 -5.03125 C 0.828125 -5.257812 0.796875 -5.507812 0.796875 -5.78125 C 0.796875 -6.21875 0.921875 -6.601562 1.171875 -6.9375 C 1.421875 -7.28125 1.753906 -7.550781 2.171875 -7.75 C 2.597656 -7.945312 3.078125 -8.046875 3.609375 -8.046875 C 3.984375 -8.046875 4.351562 -7.992188 4.71875 -7.890625 C 5.082031 -7.785156 5.414062 -7.640625 5.71875 -7.453125 C 6.03125 -7.265625 6.296875 -7.039062 6.515625 -6.78125 L 5.625 -5.8125 C 5.4375 -6 5.226562 -6.164062 5 -6.3125 C 4.78125 -6.457031 4.550781 -6.566406 4.3125 -6.640625 C 4.082031 -6.722656 3.875 -6.765625 3.6875 -6.765625 C 3.476562 -6.765625 3.285156 -6.742188 3.109375 -6.703125 C 2.941406 -6.660156 2.800781 -6.597656 2.6875 -6.515625 C 2.570312 -6.441406 2.484375 -6.34375 2.421875 -6.21875 C 2.367188 -6.101562 2.34375 -5.96875 2.34375 -5.8125 C 2.351562 -5.6875 2.382812 -5.566406 2.4375 -5.453125 C 2.488281 -5.335938 2.566406 -5.238281 2.671875 -5.15625 C 2.773438 -5.082031 2.9375 -5 3.15625 -4.90625 C 3.382812 -4.8125 3.664062 -4.726562 4 -4.65625 C 4.5 -4.519531 4.910156 -4.375 5.234375 -4.21875 C 5.566406 -4.0625 5.828125 -3.882812 6.015625 -3.6875 C 6.210938 -3.5 6.351562 -3.28125 6.4375 -3.03125 C 6.519531 -2.78125 6.5625 -2.5 6.5625 -2.1875 C 6.5625 -1.738281 6.429688 -1.335938 6.171875 -0.984375 C 5.921875 -0.628906 5.578125 -0.347656 5.140625 -0.140625 C 4.710938 0.0546875 4.234375 0.15625 3.703125 0.15625 Z M 3.703125 0.15625 "/></g></g></g></svg>